<svg width="1051" height="326" viewBox="0 0 1051 326" fill="none" xmlns="http://www.w3.org/2000/svg">
<path d="M285.021 78.2813L325.984 64.0512L343.554 93.7825L300.508 108.286L285.021 78.2813Z" fill="#FFB6B6"/>
<path opacity="0.1" d="M285.021 78.2813L325.984 64.0512L343.554 93.7825L300.508 108.286L285.021 78.2813Z" fill="black"/>
<path d="M290.845 66.9518L331.255 105.385C331.255 105.385 303.143 178.626 275.032 185.152C246.92 191.678 195.09 223.585 195.09 223.585L130.082 188.778L161.708 150.345C161.708 150.345 238.136 64.0512 258.341 64.0512C278.546 64.0512 290.845 66.9518 290.845 66.9518V66.9518Z" fill="#6C63FF"/>
<path d="M236.247 317.493H142.179L136.231 310.93L111.95 284.136L106.363 277.972C106.363 277.972 85.2795 246.065 89.6719 217.059C94.0643 188.053 139.745 181.526 139.745 181.526H141.625L197.55 222.091L194.211 259.843L211.922 284.136L236.247 317.493Z" fill="#2F2E41"/>
<path d="M161.444 317.493H136.232V286.674L161.444 317.493Z" fill="#2F2E41"/>
<path d="M854.502 101.928L863.905 150.347L804.493 150.98V108.884L854.502 101.928Z" fill="#A0616A"/>
<path d="M996.021 270.706L992.885 284.135L985.101 317.493H828.74C829.961 310.016 831.63 299.255 833.413 287.638C833.589 286.478 833.774 285.31 833.949 284.135C838.421 254.934 843.314 221.888 843.314 221.888L863.87 223.948L903.754 227.936L920.005 229.56L963.526 233.919C985.224 236.087 1000.15 252.983 996.021 270.706V270.706Z" fill="#F2F2F2"/>
<path d="M926.524 317.493H841.715C843.007 316.238 843.736 315.513 843.736 315.513L869.159 312.047L921.543 304.911C921.543 304.911 923.932 310.009 926.524 317.493V317.493Z" fill="#2F2E41"/>
<path d="M809.853 317.493H681.778C683.052 315.404 684.37 313.308 685.723 311.22C687.533 308.428 689.465 305.941 691.512 303.729C692.874 302.257 694.279 300.908 695.729 299.676C699.989 296.057 704.628 293.425 709.512 291.619C726.95 285.144 747.498 289.11 764.997 295.564C771.568 297.986 777.709 300.756 783.094 303.454C792.582 308.211 799.741 312.75 802.79 314.766C803.844 315.455 804.406 315.854 804.406 315.854L809.853 317.493V317.493Z" fill="#2F2E41"/>
<path d="M708.247 317.493H690.08L694.868 312.902L697.574 310.306L698.733 311.082L708.247 317.493Z" fill="#FFB6B6"/>
<path d="M932.726 317.493H776.286L783.094 303.454L792.45 284.136L797.15 274.433L793.267 260.793C793.267 260.793 791.352 259.676 788.435 257.667C778.043 250.561 754.912 232.258 760.227 213.462C766.271 192.07 773.861 150.381 775.469 141.396C775.671 140.272 775.776 139.663 775.776 139.663L798.353 135.095L799.1 134.942L801.525 134.449H861.999L906.477 159.315L906.468 159.576L903.754 227.936L902.594 257.182C902.594 257.182 901.197 261.402 901.531 267.957C901.751 272.453 902.779 278.044 905.625 284.136C908.638 290.611 913.707 297.645 922.026 304.512C928.307 309.697 931.356 314.063 932.726 317.493V317.493Z" fill="#6C63FF"/>
<path d="M920.006 229.56C918.521 239.611 917.098 246.754 917.098 246.754L901.531 267.957L889.654 284.136L869.159 312.047L866.154 316.144L864.011 317.493H799.715L802.79 314.766L833.413 287.638L837.375 284.135L843.797 278.443L863.87 223.948L887.528 159.721C887.528 159.721 897.112 156.965 906.468 159.576C911.388 160.946 916.254 163.803 919.601 169.344C926.006 179.916 922.887 210.155 920.006 229.56V229.56Z" fill="#6C63FF"/>
<path d="M806.901 227.806L788.435 257.667L772.069 284.136L764.997 295.564L762.212 300.074L738.344 317.493H684.3L693.208 308.356L696.519 304.947L709.512 291.619L716.804 284.136L736.596 263.817L741.875 171.274C742.75 155.925 756.918 143.517 775.358 141.411C775.397 141.407 775.434 141.402 775.469 141.396C781.46 140.403 790.983 140.113 798.353 145.994C798.608 146.189 798.854 146.4 799.1 146.617C800.339 147.698 801.507 148.967 802.579 150.453C802.684 150.598 802.79 150.751 802.886 150.903C803.194 151.367 803.492 151.875 803.765 152.418C813.173 170.504 806.901 227.806 806.901 227.806L806.901 227.806Z" fill="#6C63FF"/>
<path d="M823.015 123.479C846.605 123.479 865.728 107.693 865.728 88.221C865.728 68.7489 846.605 52.9636 823.015 52.9636C799.426 52.9636 780.303 68.7489 780.303 88.221C780.303 107.693 799.426 123.479 823.015 123.479Z" fill="#A0616A"/>
<path d="M840.726 102.083C840.726 102.083 836.298 92.0128 833.788 86.7874C831.277 81.5621 832.914 74.7812 832.914 74.7812C832.914 74.7812 799.409 68.6765 786.288 74.7273C773.168 80.7781 772.285 50.3436 785.602 42.0604C785.602 42.0604 789.168 47.1763 787.784 48.6471L786.4 50.1179C786.4 50.1179 796.477 32.5264 813.493 31.6457C813.493 31.6457 821.558 36.9579 818.519 38.7113C815.479 40.4647 840.929 28.7991 845.357 38.869C845.357 38.869 861.584 41.2555 858.422 45.8307L858.688 48.9883C858.688 48.9883 873.396 47.7278 872.348 56.3308C872.348 56.3308 867.4 55.5169 864.236 57.2609C861.071 59.0049 871.763 67.2746 871.763 67.2746C871.763 67.2746 878.189 101.735 855.904 111.657C855.904 111.657 859.519 95.9742 851.012 98.5379C842.506 101.102 840.726 102.083 840.726 102.083V102.083Z" fill="#2F2E41"/>
<path d="M1025.34 326H25.6614C11.5116 326 0 316.498 0 304.817C0 293.137 11.5116 283.635 25.6614 283.635H1025.34C1039.49 283.635 1051 293.137 1051 304.817C1051 316.498 1039.49 326 1025.34 326Z" fill="#d6d6d6"/>
<path d="M359.366 96.3536C381.412 96.3536 399.284 81.6012 399.284 63.4031C399.284 45.2051 381.412 30.4527 359.366 30.4527C337.32 30.4527 319.448 45.2051 319.448 63.4031C319.448 81.6012 337.32 96.3536 359.366 96.3536Z" fill="#FFB6B6"/>
<path d="M292.602 149.619L296.994 188.778L326.862 288.124L301.058 295.59L257.462 187.327L251.441 143.818L292.602 149.619Z" fill="#FFB6B6"/>
<path d="M280.72 219.069L278.777 293.936C278.589 301.184 271.417 306.978 262.635 306.978H95.7926C87.2184 306.978 80.1398 301.445 79.6717 294.378L74.7134 219.511C74.2078 211.876 81.5714 205.456 90.8343 205.456H264.579C273.631 205.456 280.914 211.598 280.72 219.069H280.72Z" fill="#3F3D56"/>
<path d="M331.618 307.484C349.029 307.484 363.143 302.331 363.143 295.974C363.143 289.617 349.029 284.464 331.618 284.464C314.208 284.464 300.093 289.617 300.093 295.974C300.093 302.331 314.208 307.484 331.618 307.484Z" fill="#FFB6B6"/>
<path d="M230.668 155.606L248.677 76.3788C248.677 76.3788 298.751 70.5776 300.508 84.3555C302.265 98.1335 299.252 165.468 299.252 165.468L230.668 155.606V155.606Z" fill="#6C63FF"/>
<path d="M343.252 68.5841C343.252 68.5841 367.945 61.3094 378.362 57.3953C388.778 53.4811 409.471 80.782 409.931 66.3635C410.391 51.945 403.241 45.8985 403.241 45.8985C403.241 45.8985 401.455 14.356 362.958 18.2995C362.958 18.2995 371.426 2.51847 343.63 0.0782195C315.834 -2.36203 272.59 53.0453 276.463 61.3256C280.336 69.6059 284.978 76.4516 273.991 85.3051C263.003 94.1586 242.429 144.125 258.083 157.571C273.737 171.017 274.764 176.852 264.038 185.216C253.313 193.581 227.961 211.77 255.373 214.927C282.784 218.085 252.865 215.727 273.3 200.889C293.735 186.051 323.555 186.657 312.421 162.851C301.287 139.045 320.631 104.932 318.21 99.7564C315.79 94.5812 323.633 61.7184 323.633 61.7184C323.633 61.7184 341.888 59.5046 343.252 68.5841V68.5841Z" fill="#2F2E41"/>
<path d="M649.532 283.783H443.469C434.939 283.783 428 276.844 428 268.314V163.469C428 154.939 434.939 148 443.469 148H649.532C658.061 148 665 154.939 665 163.469V268.314C665 276.844 658.061 283.783 649.532 283.783V283.783ZM443.469 150C436.042 150 430 156.042 430 163.469V268.314C430 275.741 436.042 281.783 443.469 281.783H649.532C656.958 281.783 663 275.741 663 268.314V163.469C663 156.042 656.958 150 649.532 150H443.469Z" fill="#3F3D56"/>
<path d="M664 234V198L429 198V234H664Z" fill="#6C63FF"/>
<path d="M567.206 283.543V148H532V283.543H567.206Z" fill="#6C63FF"/>
<path d="M587.256 274.831C586.458 274.831 585.692 274.497 585.146 273.899L548.014 233.126C547.708 232.79 547.262 232.577 546.759 232.527L546.599 232.51C545.692 232.409 544.864 232.9 544.58 233.705C537.251 254.485 519.408 265.06 514.114 267.806C512.921 268.427 511.44 268.114 510.59 267.065L488.641 239.993C487.945 239.136 487.805 237.98 488.274 236.976C488.736 235.986 489.697 235.362 490.783 235.346C507.752 235.084 524.425 225.399 532.853 219.649C533.36 219.302 533.663 218.704 533.662 218.05C533.663 217.366 533.361 216.769 532.853 216.423C524.426 210.673 507.756 200.987 490.783 200.726C489.697 200.709 488.736 200.084 488.274 199.095C487.805 198.091 487.945 196.935 488.641 196.077L510.591 169.006C511.441 167.959 512.923 167.647 514.113 168.264C519.407 171.011 537.246 181.585 544.577 202.358C544.861 203.162 545.673 203.664 546.489 203.566C547.379 203.453 548.264 203.428 549.12 203.491L585.146 163.933C585.784 163.233 586.725 162.894 587.661 163.029C588.599 163.164 589.406 163.752 589.821 164.603L605.646 197.005C605.999 197.727 606.03 198.569 605.733 199.315C605.436 200.06 604.835 200.649 604.083 200.93L564.021 215.953C563.284 216.23 562.803 216.95 562.823 217.745L562.826 218.035C562.826 218.658 562.783 219.292 562.697 219.919C562.588 220.726 563.09 221.528 563.893 221.83L604.084 236.902C604.835 237.184 605.437 237.773 605.734 238.519C606.03 239.265 605.998 240.106 605.646 240.827L589.821 273.23C589.406 274.08 588.599 274.668 587.661 274.802C587.526 274.821 587.39 274.831 587.256 274.831V274.831Z" fill="#6C63FF"/>
</svg>
