<svg width="389" height="429" viewBox="0 0 389 429" fill="none" xmlns="http://www.w3.org/2000/svg">
<path d="M0 427C0 427.555 0.300701 428 0.675155 428H388.325C388.699 428 389 427.555 389 427C389 426.445 388.699 426 388.325 426H0.675155C0.300701 426 0 426.445 0 427Z" fill="#3F3D56"/>
<path d="M253.209 428H62.7908C55.1865 428 49 421.061 49 412.531V15.4683C49 6.93896 55.1865 0 62.7908 0H253.209C260.814 0 267 6.93896 267 15.4683V412.531C267 421.061 260.814 428 253.209 428H253.209ZM62.7908 2C56.1699 2 50.7831 8.04199 50.7831 15.4683V412.531C50.7831 419.958 56.1699 426 62.7908 426H253.209C259.83 426 265.217 419.958 265.217 412.531V15.4683C265.217 8.04199 259.83 2 253.209 2H62.7908Z" fill="#3F3D56"/>
<path d="M116.133 334.147C115.288 332.724 111.636 334.248 110.964 332.956C110.295 331.668 113.689 329.707 115.628 325.226C115.977 324.418 118.181 319.326 116.549 317.754C113.458 314.776 99.3099 327.067 94.3588 323.045C93.2722 322.162 92.5131 320.4 89.2245 317.539C87.9162 316.401 87.1251 315.887 86.3595 316.078C85.2731 316.349 85.1871 317.803 84.0222 320.662C82.2751 324.949 81.2419 324.691 80.224 328.111C79.4684 330.65 79.641 332.127 78.7518 332.414C77.4936 332.821 76.3355 330.128 74.7408 330.369C73.1136 330.615 72.1299 333.751 71.8192 336.099C71.236 340.505 72.8541 343.412 73.751 346.47C74.7256 349.792 75.304 354.845 73.0533 361.997L50.7761 424.763C55.6942 411.884 69.9345 376.578 75.9183 363.458C77.6457 359.671 79.553 355.829 83.4692 354.313C87.2397 352.853 92.4179 353.725 99.0195 352.134C99.7905 351.949 101.93 351.404 102.199 350.146C102.422 349.105 101.164 348.525 101.357 347.55C101.616 346.243 104.091 346.227 107.132 344.719C109.277 343.656 110.613 342.391 111.761 341.304C112.108 340.976 117.257 336.042 116.133 334.147H116.133L116.133 334.147Z" fill="#F2F2F2"/>
<path d="M28.4875 367.19C27.5451 367.193 27.2394 369.426 26.4116 369.383C25.5866 369.34 25.6031 367.108 23.9633 364.864C23.6675 364.459 21.804 361.908 20.5621 362.255C18.2083 362.914 20.1586 373.404 16.7559 374.673C16.0092 374.952 14.9253 374.816 12.5723 375.605C11.6362 375.918 11.1557 376.158 11.0286 376.589C10.8483 377.201 11.5371 377.662 12.6041 379.059C14.2042 381.153 13.779 381.586 15.1641 383.072C16.1924 384.176 16.9668 384.517 16.8514 385.037C16.6881 385.772 15.032 385.563 14.6903 386.415C14.3416 387.285 15.5969 388.672 16.6596 389.502C18.6539 391.06 20.5477 391.105 22.3069 391.546C24.2188 392.027 26.8655 393.201 29.7267 396.369L54.105 425.413C49.2028 419.283 35.9832 402.107 31.2703 395.384C29.9098 393.444 28.5747 391.399 28.9605 389.04C29.3319 386.768 31.2538 384.478 32.378 380.779C32.5093 380.347 32.8594 379.14 32.3195 378.644C31.8731 378.235 31.225 378.685 30.8026 378.309C30.2359 377.805 30.942 376.585 31.0794 374.658C31.1763 373.298 30.9411 372.278 30.7389 371.4C30.6779 371.136 29.7419 367.185 28.4875 367.19V367.19V367.19Z" fill="#F2F2F2"/>
<path d="M47.2871 371.41L46.7194 366.342L46.9788 365.958C48.1791 364.181 48.7909 362.446 48.7983 360.799C48.7995 360.537 48.7873 360.275 48.775 360.008C48.7261 358.951 48.6649 357.637 49.3501 356.105C49.7343 355.251 50.8135 353.274 52.436 353.518C52.8729 353.58 53.2033 353.78 53.4541 354.015C53.4908 353.956 53.5287 353.898 53.5691 353.834C54.0744 353.063 54.4746 352.733 54.86 352.415C55.1561 352.17 55.462 351.918 55.9417 351.321C56.1521 351.059 56.3161 350.829 56.4543 350.636C56.8741 350.051 57.4222 349.353 58.3889 349.366C59.4216 349.414 59.9624 350.269 60.3209 350.834C60.9609 351.842 61.2509 352.569 61.443 353.051C61.5128 353.227 61.5922 353.425 61.6326 353.487C61.9654 353.976 64.6709 353.518 65.6901 353.352C67.9795 352.97 69.9605 352.64 70.7767 354.084C71.3616 355.116 70.9272 356.482 69.4466 358.251C68.9853 358.802 68.4946 359.22 68.059 359.548C68.42 359.764 68.743 360.094 68.874 360.613C69.1823 361.841 68.1263 363.072 65.7366 364.276C65.1432 364.577 64.3441 364.979 63.2245 365.172C62.6972 365.263 62.2224 365.285 61.8162 365.297C61.8076 365.532 61.7526 365.786 61.6094 366.048C61.1897 366.819 60.3161 367.186 58.9995 367.098C57.5507 367.022 56.3577 366.746 55.3054 366.503C54.3865 366.293 53.5948 366.114 52.9732 366.156C51.8206 366.249 50.9323 367.171 49.8898 368.368L47.2872 371.41H47.2871V371.41Z" fill="#F2F2F2"/>
<path d="M49.9208 341.234L45.1624 343.069L44.725 342.915C42.7019 342.205 40.8684 342.053 39.2734 342.464C39.0198 342.529 38.7697 342.607 38.5147 342.687C37.5046 343.002 36.2489 343.395 34.5932 343.121C33.6696 342.966 31.4832 342.423 31.3084 340.792C31.2568 340.354 31.367 339.983 31.5307 339.681C31.4645 339.66 31.3981 339.639 31.3263 339.616C30.4525 339.322 30.0314 339.019 29.6259 338.727C29.3141 338.503 28.9927 338.271 28.2934 337.958C27.9868 337.821 27.7227 337.721 27.5006 337.636C26.8284 337.378 26.0147 337.025 25.7813 336.087C25.5667 335.076 26.2557 334.336 26.7116 333.846C27.5245 332.971 28.154 332.506 28.5716 332.198C28.7244 332.086 28.8959 331.958 28.9449 331.904C29.3339 331.458 28.205 328.957 27.7856 328.013C26.8356 325.896 26.0135 324.063 27.2031 322.907C28.0537 322.08 29.4848 322.154 31.5718 323.137C32.2214 323.444 32.7507 323.812 33.1784 324.15C33.2951 323.746 33.5327 323.35 34.0014 323.092C35.1115 322.482 36.57 323.191 38.3409 325.197C38.7825 325.695 39.3735 326.366 39.8445 327.4C40.0658 327.887 40.2075 328.341 40.3224 328.731C40.5519 328.679 40.812 328.668 41.1016 328.74C41.9537 328.951 42.5304 329.703 42.7791 330.998C43.0732 332.419 43.1083 333.643 43.1409 334.723C43.1704 335.665 43.1984 336.476 43.3963 337.067C43.7787 338.158 44.8964 338.783 46.3184 339.488L49.9209 341.234L49.9208 341.234V341.234Z" fill="#F2F2F2"/>
<path d="M47.2871 326.303L46.7194 321.235L46.9788 320.851C48.1791 319.074 48.7909 317.339 48.7983 315.692C48.7995 315.43 48.7873 315.168 48.775 314.901C48.7261 313.844 48.6649 312.53 49.3501 310.998C49.7343 310.144 50.8135 308.167 52.436 308.411C52.8729 308.473 53.2033 308.673 53.4541 308.908C53.4908 308.85 53.5287 308.791 53.5691 308.727C54.0744 307.956 54.4746 307.626 54.86 307.308C55.1561 307.063 55.462 306.811 55.9417 306.214C56.1521 305.952 56.3161 305.722 56.4543 305.529C56.8741 304.944 57.4222 304.246 58.3889 304.259C59.4216 304.308 59.9624 305.162 60.3209 305.727C60.9609 306.735 61.2509 307.462 61.443 307.944C61.5128 308.12 61.5922 308.318 61.6326 308.38C61.9654 308.869 64.6709 308.411 65.6901 308.245C67.9795 307.863 69.9605 307.533 70.7767 308.977C71.3616 310.009 70.9272 311.375 69.4466 313.144C68.9853 313.695 68.4946 314.113 68.059 314.441C68.42 314.657 68.743 314.987 68.874 315.506C69.1823 316.734 68.1263 317.965 65.7366 319.169C65.1432 319.47 64.3441 319.872 63.2245 320.065C62.6972 320.156 62.2224 320.178 61.8162 320.19C61.8076 320.425 61.7526 320.679 61.6094 320.941C61.1897 321.712 60.3161 322.079 58.9995 321.991C57.5507 321.915 56.3577 321.639 55.3054 321.396C54.3865 321.186 53.5948 321.007 52.9732 321.049C51.8206 321.142 50.9323 322.064 49.8898 323.261L47.2872 326.303H47.2871V326.303Z" fill="#F2F2F2"/>
<path d="M52.4728 424.681L51.4106 424.015L51.1537 422.789L51.4106 424.015L50.1724 424.157C50.1528 424.042 50.0855 423.778 49.9839 423.364C49.4297 421.098 47.7399 414.202 46.3303 403.341C45.3465 395.76 44.7898 387.965 44.6747 380.171C44.5597 372.364 44.9292 366.454 45.2253 361.704C45.4493 358.122 45.7209 354.71 45.9877 351.387C46.6974 342.508 47.3667 334.122 46.8687 324.837C46.7585 322.764 46.5273 318.45 44.0067 313.859C42.5444 311.196 40.5304 308.832 38.0195 306.836L39.5809 304.873C42.3523 307.08 44.5805 309.699 46.2042 312.655C48.9989 317.745 49.251 322.446 49.3721 324.705C49.8787 334.154 49.202 342.621 48.485 351.585C48.2207 354.896 47.9491 358.293 47.7264 361.861C47.4327 366.567 47.0669 372.426 47.1807 380.132C47.2932 387.833 47.8438 395.532 48.8141 403.018C50.2066 413.742 51.8719 420.535 52.4189 422.767C52.7101 423.959 52.7713 424.208 52.4727 424.681V424.681H52.4728Z" fill="#F2F2F2"/>
<path d="M33.4237 310.817C33.3209 310.817 33.2169 310.815 33.1117 310.807C30.9777 310.692 29.0016 309.415 27.2372 307.012C26.41 305.881 25.9866 304.591 25.1423 302.019C25.0114 301.623 24.3751 299.611 23.9885 296.844C23.7352 295.035 23.767 294.279 24.1255 293.611C24.5232 292.867 25.1668 292.348 25.8912 291.998C25.8594 291.758 25.885 291.511 25.9891 291.259C26.4161 290.214 27.5516 290.351 28.1659 290.417C28.4767 290.456 28.8645 290.508 29.283 290.486C29.9413 290.454 30.2949 290.258 30.8309 289.964C31.3436 289.683 31.9811 289.333 32.9269 289.14C34.7917 288.751 36.3542 289.279 36.8694 289.453C39.5796 290.356 40.9158 292.463 42.4625 294.903C42.7708 295.392 43.8292 297.174 44.5279 299.616C45.032 301.378 44.9611 302.161 44.8093 302.744C44.501 303.94 43.7729 304.626 41.9241 306.138C39.9932 307.721 39.0241 308.514 38.1921 308.996C36.2551 310.115 35.0388 310.817 33.4237 310.817V310.817V310.817Z" fill="#F2F2F2"/>
<path d="M268 177H48V240H268V177Z" fill="#6C63FF"/>
<path d="M188 1H131V427H188V1Z" fill="#6C63FF"/>
<path opacity="0.2" d="M190.104 235.369C190.507 233.615 190.747 231.793 190.806 229.915L262 157.416L200.808 124L173.838 204.416C171.995 203.878 170.071 203.562 168.077 203.562C167.018 203.562 165.984 203.671 164.964 203.827L138.192 124L77 157.416L145.396 227.066C145.352 227.714 145.308 228.362 145.308 229.022C145.308 231.217 145.583 233.336 146.05 235.369C104.125 250.019 86.9615 294.263 86.9615 294.263L139.615 342C136.475 306.885 155.653 270.936 166.021 254.366C166.699 254.434 167.383 254.482 168.077 254.482C168.771 254.482 169.455 254.434 170.133 254.366C180.501 270.936 199.679 306.885 196.538 342L249.192 294.263C249.192 294.263 232.029 250.02 190.104 235.369L190.104 235.369Z" fill="black"/>
<path d="M197.84 324.999C197.222 324.999 196.6 324.849 196.013 324.543C194.527 323.769 193.589 322.157 193.563 320.334C193.129 289.463 177.351 259.164 167.984 243.851C167.359 242.829 166.278 242.218 165.094 242.218H165.089C163.861 242.218 162.781 242.829 162.155 243.851C152.789 259.164 137.011 289.463 136.576 320.334C136.55 322.156 135.612 323.769 134.126 324.543C132.626 325.327 130.895 325.09 129.61 323.928L85.6236 284.138C84.0535 282.717 83.5926 280.228 84.528 278.219C88.9744 268.666 106.092 236.468 139.687 223.228C141.186 222.637 142.097 220.972 141.901 219.178C141.792 218.176 141.737 217.17 141.737 216.187C141.739 215.015 141.337 213.951 140.635 213.238L77.3975 148.985C76.3487 147.919 75.8427 146.348 76.0431 144.781C76.2441 143.215 77.1252 141.864 78.3998 141.169L131.051 112.483C132.131 111.894 133.391 111.842 134.51 112.337C135.627 112.833 136.51 113.839 136.933 115.095L161.345 187.725C161.849 189.224 163.141 190.202 164.608 190.161C165.714 190.133 166.836 190.204 167.955 190.366C169.533 190.602 171.023 189.609 171.575 187.962L196.068 115.095C196.49 113.839 197.373 112.833 198.491 112.337C199.608 111.842 200.87 111.894 201.949 112.483L254.6 141.169C255.875 141.864 256.756 143.215 256.957 144.782C257.158 146.348 256.651 147.919 255.602 148.985L189.35 216.302C188.732 216.929 188.348 217.785 188.267 218.712C188.25 218.912 188.231 219.113 188.209 219.312C188.028 220.998 188.967 222.643 190.442 223.224C224.044 236.462 241.165 268.665 245.612 278.219C246.547 280.228 246.086 282.717 244.516 284.138L200.529 323.928C199.747 324.636 198.8 324.999 197.84 324.999V324.999Z" fill="#6C63FF"/>
<path d="M343.116 171.688H314.297V161.077C314.297 143.291 327.21 128.851 343.116 128.851H343.116V171.688V171.688Z" fill="#2F2E41"/>
<path d="M336.728 151.88L341.683 176.802L312.647 171.41L324.48 147.84L336.728 151.88Z" fill="#FFB6B6"/>
<path opacity="0.1" d="M336.728 151.88L341.683 176.802L312.647 171.41L324.48 147.84L336.728 151.88Z" fill="black"/>
<path d="M308.89 251.19H336.728V205.118H308.89V251.19Z" fill="#FFB6B6"/>
<path d="M354.823 288.857L348.698 325.59C348.698 325.59 352.596 351.116 340.904 377.265L333.109 404.036L321.417 402.168C321.417 402.168 328.655 382.245 328.655 373.529C328.655 364.813 330.325 331.193 330.325 331.193L329.49 292.83L354.823 288.857V288.857Z" fill="#FFB6B6"/>
<path d="M319.747 401.546C319.747 401.546 333.109 395.942 334.223 404.036L333.666 407.772C333.666 407.772 338.677 424.581 331.439 425.827C324.201 427.072 317.52 428.94 316.963 425.204C316.407 421.469 316.415 416.806 317.803 413.534C319.19 410.262 319.747 401.546 319.747 401.546V401.546Z" fill="#2F2E41"/>
<path d="M312.676 283.159L309.423 320.347C309.423 320.347 299.331 343.654 304.059 372.408L304.888 400.547L316.583 402.389C316.583 402.389 314.585 381.001 316.753 372.629C318.921 364.256 325.678 331.443 325.678 331.443L336.021 294.854L312.676 283.159V283.159Z" fill="#FFB6B6"/>
<path d="M318.342 402.31C318.342 402.31 306.901 392.772 303.818 400.201L303.424 403.962C303.424 403.962 294.589 422.553 301.231 426C307.874 429.447 313.668 429.316 315.132 425.901C316.596 422.486 317.747 418.004 317.228 414.43C316.709 410.856 318.342 402.31 318.342 402.31V402.31Z" fill="#2F2E41"/>
<path d="M347.585 229.711L371.525 286.366C371.525 286.366 323.366 313.449 294.972 313.449L309.07 229.711H347.585V229.711Z" fill="#2F2E41"/>
<path d="M326.15 163.405L340.069 165.895L338.955 205.118L354.544 239.983L334.501 251.19C334.501 251.19 318.912 218.193 316.128 197.647C313.345 177.102 315.015 162.16 315.015 162.16L326.15 163.405V163.405Z" fill="#E6E6E6"/>
<path d="M315.572 164.65L301.653 167.14L302.766 206.364L299.426 242.474L307.22 252.435C307.22 252.435 322.809 219.438 325.593 198.893C328.377 178.347 326.707 163.405 326.707 163.405L315.572 164.65V164.65Z" fill="#E6E6E6"/>
<path d="M337.007 166.829L340.069 165.895C340.069 165.895 350.925 164.339 352.596 169.32C354.266 174.3 353.709 203.562 353.709 203.562C353.709 203.562 356.582 239.476 345.402 239.885C334.223 240.295 336.45 210.41 336.45 210.41L337.007 166.829V166.829Z" fill="#E6E6E6"/>
<path d="M331.87 158.719C339.828 158.719 346.279 151.505 346.279 142.606C346.279 133.707 339.828 126.493 331.87 126.493C323.912 126.493 317.46 133.707 317.46 142.606C317.46 151.505 323.912 158.719 331.87 158.719Z" fill="#FFB6B6"/>
<path d="M327.362 164.782C330.453 163.905 333.958 167.597 335.191 173.03C335.71 175.193 335.758 177.464 335.332 179.652L336.66 185.828L336.758 185.823L347.235 213.434C349.671 219.854 349.413 227.224 346.306 233.271C344.458 236.868 342.032 239.286 339.183 236.817C334.455 232.721 331.368 209.268 329.958 195.796L326.698 182.102C325.39 180.405 324.464 178.383 323.997 176.205C322.764 170.773 324.271 165.659 327.362 164.782V164.782Z" fill="#FFB6B6"/>
<path d="M313.901 166.829L310.839 165.895C310.839 165.895 299.982 164.339 298.312 169.32C296.642 174.3 297.199 203.562 297.199 203.562C297.199 203.562 294.326 239.476 305.505 239.885C316.685 240.295 314.458 210.41 314.458 210.41L313.901 166.829H313.901Z" fill="#E6E6E6"/>
<path d="M323.546 164.782C320.455 163.905 316.95 167.597 315.717 173.03C315.198 175.193 315.15 177.464 315.576 179.652L314.248 185.828L314.15 185.823L303.673 213.434C301.237 219.854 301.494 227.224 304.601 233.271C306.45 236.868 308.876 239.286 311.725 236.817C316.452 232.721 319.54 209.268 320.95 195.796L324.21 182.102C325.518 180.405 326.444 178.383 326.91 176.205C328.144 170.773 326.637 165.659 323.546 164.782V164.782Z" fill="#FFB6B6"/>
<path d="M304.283 155.642C305.016 153.15 306.463 150.968 307.11 148.446C307.97 145.098 309.8 152.526 309.978 149.048C310.318 142.438 319.339 125.436 324.489 122.17C329.639 118.904 332.597 119.888 337.844 122.956C337.844 122.956 340.391 123.137 343.562 124.887C346.733 126.638 349.587 129.442 350.82 133.148C351.798 136.085 351.689 139.311 352.016 142.424C352.926 151.097 357.273 159.345 356.34 168.014C356.049 170.719 355.13 173.516 353.152 175.107C351.174 176.698 347.979 176.525 346.678 174.222C346.233 173.436 346.045 172.504 345.665 171.678C345.284 170.851 344.596 170.081 343.765 170.106C342.516 170.145 341.88 172.019 342.373 173.304C342.865 174.588 344.023 175.363 345.11 176.053C342.521 177.355 339.31 176.95 337.047 175.035C334.783 173.12 333.561 169.775 333.978 166.635C334.565 162.211 340.328 163.127 341.007 158.719C341.501 155.511 343.237 150.142 342.764 146.929C342.292 143.716 340.021 147.606 342.413 145.75C339.781 147.169 334.152 137.463 331.397 136.376C328.642 135.289 326.306 132.936 325.054 129.984C322.131 134.721 319.561 133.435 318.515 139.069C317.468 144.703 318.436 157.504 322.745 160.649C321.02 161.965 319.646 163.847 318.836 165.999C318.378 167.218 318.081 168.552 317.32 169.564C315.867 171.498 313.184 171.616 311.045 170.803C308.393 169.794 306.126 167.58 304.876 164.777C303.626 161.974 303.408 158.617 304.283 155.642V155.642Z" fill="#2F2E41"/>
</svg>
