<svg width="354" height="225" viewBox="0 0 354 225" fill="none" xmlns="http://www.w3.org/2000/svg">
<path d="M5.76605 88.6231C5.31083 97.2582 4.85561 106.132 0.0649414 114.245V111.559C3.64168 104.382 4.04271 96.6057 4.45458 88.5579C5.09406 76.3123 5.75521 63.6425 18.729 53.2348C21.7313 50.8205 24.712 49.0913 27.6601 47.8841L27.6492 35.8233C27.6492 33.5287 29.5135 31.669 31.7896 31.669L58.4309 31.6472C60.707 31.6472 62.5712 33.496 62.5712 35.7907L62.5821 48.1016C72.5861 49.5263 82.2975 49.461 92.6376 41.174C105.156 31.147 105.763 19.3146 106.413 6.81881C106.533 4.61111 106.652 2.38167 106.825 0.152222H108.148C107.953 2.35992 107.833 4.62199 107.714 6.88406C107.096 19.1406 106.435 31.8104 93.4613 42.2072C82.8394 50.7226 72.5753 50.8205 62.5929 49.4284V55.1488C62.5929 57.4327 60.7287 59.3032 58.4634 59.3032L31.8221 59.325C29.5351 59.325 27.6709 57.4544 27.6709 55.1815V49.2653C24.9938 50.4398 22.2949 52.0602 19.5528 54.2679C7.02333 64.295 6.41637 76.1056 5.76605 88.6231Z" fill="url(#paint0_linear_475_160)"/>
<path d="M3.94527 178.802C2.65547 178.573 1.38736 178.356 0.108398 178.16V176.833C1.46323 177.04 2.81805 177.279 4.16204 177.518C16.4639 179.639 28.0829 181.651 40.5906 171.613C53.1092 161.586 53.7162 149.764 54.3665 137.258C55.006 125.012 55.6563 112.342 68.6301 101.935C81.604 91.527 94.0575 93.6803 106.11 95.7683C118.412 97.889 130.031 99.9118 142.539 89.8848C155.046 79.8577 155.664 68.0253 156.315 55.5296C156.954 43.2839 157.593 30.6141 170.578 20.2064C183.552 9.80962 196.006 11.9521 208.047 14.0401C220.349 16.1608 231.968 18.1836 244.476 8.15656C247.706 5.56823 250.134 2.87115 251.976 0.0653076H253.515C251.553 3.24091 248.898 6.29688 245.31 9.18972C232.337 19.5866 219.883 17.4224 207.83 15.356C195.529 13.2136 183.91 11.2125 171.402 21.2396C158.883 31.2667 158.276 43.0882 157.626 55.5948C156.987 67.8405 156.336 80.5102 143.362 90.9179C130.389 101.315 117.946 99.1723 105.893 97.0843C93.5915 94.9418 81.9616 92.9408 69.443 102.968C56.9244 112.995 56.3175 124.816 55.6671 137.323C55.0277 149.569 54.3882 162.238 41.4035 172.646C28.4405 183.043 15.987 180.89 3.94527 178.802Z" fill="url(#paint1_linear_475_160)"/>
<path d="M272.699 34.812L272.754 34.4749H279.788C280.742 34.5184 281.511 34.812 281.771 35.8343L283.31 43.2186C281.804 39.347 278.173 36.1388 272.699 34.812Z" fill="url(#paint2_linear_475_160)"/>
<path d="M283.495 44.3061L283.972 46.0353L288.416 34.6379H293.217L286.074 51.299H281.284L277.219 37.3785C280.135 39.26 282.617 42.2289 283.495 44.3061Z" fill="url(#paint3_linear_475_160)"/>
<path d="M301.476 39.8255C301.498 36.5846 304.663 34.3008 309.139 34.3008C310.895 34.3008 312.315 34.6705 313.203 35.0077L312.586 38.6183L312.174 38.4334C311.328 38.0963 310.255 37.7809 308.77 37.7918C307.004 37.7918 306.169 38.5422 306.169 39.2382C306.158 40.0103 307.145 40.5324 308.727 41.3045C311.339 42.5008 312.553 43.9363 312.521 45.8504C312.499 49.3196 309.399 51.56 304.641 51.56C302.603 51.5382 300.652 51.1249 299.59 50.6682L300.23 46.9271L300.804 47.1881C302.289 47.808 303.264 48.069 305.074 48.069C306.375 48.069 307.773 47.5578 307.795 46.4377C307.806 45.6981 307.199 45.1761 305.443 44.3605C303.72 43.5666 301.454 42.218 301.476 39.8255Z" fill="url(#paint4_linear_475_160)"/>
<path d="M312.239 51.299L318.959 35.9757C319.436 34.899 320.259 34.5945 321.343 34.5945H324.844L328.529 51.2881H324.313C324.313 51.2881 323.901 49.3741 323.76 48.7977H317.951C317.777 49.2327 316.997 51.2881 316.997 51.2881L312.239 51.299Z" fill="url(#paint5_linear_475_160)"/>
<path d="M350.9 10.4077C352.569 13.4202 353.501 16.9003 353.501 20.587L353.523 44.7411C353.155 47.8515 352.992 50.9727 352.829 54.0613C352.179 66.5788 351.572 78.3895 339.054 88.4165C326.535 98.4436 314.916 96.4317 302.625 94.3001C290.583 92.212 278.13 90.0587 265.156 100.466C252.171 110.863 251.521 123.533 250.892 135.79C250.242 148.285 249.635 160.118 237.116 170.145C224.598 180.172 212.979 178.16 200.688 176.028C188.635 173.94 176.182 171.787 163.208 182.195C150.234 192.591 149.573 205.261 148.944 217.518C148.825 219.78 148.717 222.031 148.511 224.25L77.301 224.304C78.038 223.804 78.7859 223.249 79.5229 222.651C92.5076 212.254 93.1579 199.584 93.7865 187.328C94.4368 174.81 95.0438 163 107.562 152.973C120.081 142.946 131.711 144.947 144.013 147.089C156.065 149.177 168.508 151.33 181.482 140.923C194.456 130.526 195.117 117.856 195.745 105.6C196.396 93.0821 197.003 81.2714 209.521 71.2444C222.04 61.2173 233.659 63.2184 245.95 65.3608C258.002 67.438 270.456 69.6022 283.43 59.1945C287.776 55.7035 290.746 51.9624 292.783 48.0581L292.231 51.299H296.761L299.601 34.6053H296.826C297.325 31.0382 297.509 27.4385 297.683 23.8714C298.105 15.4973 298.539 7.43871 302.527 0.0217285H301.075C297.216 7.62359 296.794 15.8019 296.382 23.8061C296.187 27.482 296.003 31.0926 295.515 34.6053H295.07L293.694 42.7183C291.83 48.1886 288.578 53.3762 282.617 58.1613C270.098 68.1884 258.479 66.1765 246.188 64.0449C234.147 61.9568 221.693 59.8035 208.719 70.2112C195.735 80.608 195.084 93.2778 194.456 105.534C193.805 118.03 193.198 129.862 180.68 139.89C168.161 149.917 156.542 147.905 144.251 145.773C132.199 143.685 119.745 141.532 106.771 151.939C93.7974 162.347 93.1037 175.028 92.475 187.273C91.8247 199.791 91.2178 211.602 78.6992 221.629C77.431 222.64 76.1846 223.543 74.9165 224.304L20.9402 224.347C13.2664 224.358 6.53566 220.258 2.82886 214.136C6.45979 220.628 13.3748 225.011 21.3087 225L332.843 224.772C344.538 224.761 354.011 215.234 354 203.51L353.87 21.2178C353.87 17.2592 352.797 13.5615 350.9 10.4077ZM353.642 202.858C353.653 214.592 344.169 224.108 332.485 224.119L190.088 224.217C190.153 224.152 190.229 224.097 190.315 224.032C202.834 214.005 214.464 216.006 226.765 218.149C238.818 220.237 251.261 222.39 264.235 211.982C277.208 201.585 277.87 188.916 278.498 176.659C279.149 164.142 279.755 152.331 292.274 142.304C304.793 132.277 316.412 134.278 328.703 136.42C336.821 137.812 345.101 139.248 353.599 136.866L353.642 202.858ZM353.588 135.539C345.351 137.965 337.287 136.562 328.909 135.126C316.867 133.038 304.413 130.885 291.44 141.292C278.455 151.689 277.805 164.359 277.176 176.616C276.526 189.111 275.919 200.944 263.4 210.971C250.881 220.998 239.262 218.986 226.971 216.854C214.919 214.766 202.465 212.613 189.491 223.021C188.993 223.412 188.505 223.825 188.05 224.239L149.844 224.271C150.028 222.042 150.147 219.823 150.256 217.605C150.906 205.087 151.513 193.277 164.032 183.25C176.55 173.222 188.169 175.224 200.482 177.366C212.534 179.454 224.977 181.607 237.951 171.2C250.925 160.803 251.586 148.133 252.215 135.877C252.865 123.359 253.472 111.548 265.99 101.521C278.509 91.4943 290.128 93.4953 302.419 95.6378C314.472 97.715 326.925 99.8792 339.899 89.4714C349.816 81.5216 352.526 72.2449 353.545 62.8595L353.588 135.539Z" fill="url(#paint6_linear_475_160)"/>
<path d="M106.825 0.163086C106.641 2.39253 106.522 4.6111 106.414 6.82967C105.763 19.3254 105.156 31.1578 92.6377 41.1849C82.2976 49.461 72.5862 49.5371 62.5822 48.1125L62.5713 35.8016C62.5713 33.5069 60.7071 31.6581 58.431 31.6581L31.7897 31.6798C29.5027 31.6798 27.6385 33.5395 27.6493 35.8342L27.6602 47.895C24.7121 49.113 21.7314 50.8313 18.7291 53.2456C5.75531 63.6425 5.09416 76.3122 4.45468 88.5579C4.04281 96.6056 3.64178 104.382 0.065041 111.559L9.28099e-06 21.4788C-0.0108293 9.76601 9.47296 0.228338 21.157 0.228338L106.825 0.163086Z" fill="url(#paint7_linear_475_160)"/>
<path d="M251.998 0.0543213C250.144 2.86016 247.727 5.55725 244.497 8.14558C231.979 18.1726 220.36 16.1607 208.069 14.0291C196.027 11.9411 183.574 9.78776 170.6 20.1955C157.615 30.5923 156.965 43.2621 156.336 55.5186C155.686 68.0144 155.079 79.8467 142.56 89.8738C130.042 99.9009 118.423 97.8889 106.132 95.7574C94.0791 93.6693 81.6256 91.516 68.6518 101.924C55.6779 112.331 55.0168 124.99 54.3881 137.247C53.7378 149.764 53.1309 161.575 40.6123 171.602C28.0937 181.629 16.4747 179.628 4.18367 177.507C2.82884 177.268 1.47401 177.04 0.130024 176.822L0.0866699 114.235C4.88818 106.122 5.3434 97.2582 5.78778 88.6123C6.4381 76.0947 7.04506 64.2841 19.5637 54.257C22.3058 52.0602 25.0046 50.4289 27.6818 49.2544V55.1706C27.6818 57.4544 29.546 59.3141 31.833 59.3141L58.4743 59.2923C60.7504 59.2923 62.6038 57.4218 62.6038 55.1379V49.4175C72.5753 50.8096 82.8503 50.7117 93.4722 42.1963C106.435 31.8103 107.096 19.1406 107.725 6.89491C107.844 4.63284 107.953 2.38165 108.159 0.163075L251.998 0.0543213Z" fill="url(#paint8_linear_475_160)"/>
<path d="M253.537 0.0543545C251.575 3.22996 248.92 6.28593 245.332 9.17877C232.358 19.5756 219.905 17.4114 207.852 15.3451C195.55 13.2026 183.931 11.2016 171.423 21.2286C158.905 31.2557 158.298 43.0772 157.648 55.5839C157.008 67.8295 156.358 80.4993 143.384 90.907C130.41 101.304 117.967 99.1614 105.915 97.0733C93.613 94.9309 81.9832 92.9298 69.4646 102.957C56.946 112.984 56.339 124.805 55.6887 137.312C55.0492 149.558 54.4098 162.227 41.4251 172.635C28.4513 183.032 15.9977 180.89 3.95601 178.802C2.66621 178.573 1.3981 178.356 0.119141 178.16L0.140818 203.771C0.140818 207.415 1.0621 210.851 2.69873 213.853C2.75292 213.961 2.78544 214.048 2.86131 214.125C6.56812 220.247 13.2881 224.337 20.9726 224.337L74.9489 224.293C76.2062 223.532 77.4526 222.629 78.7316 221.618C91.2502 211.591 91.8572 199.769 92.5075 187.263C93.147 175.017 93.7973 162.347 106.771 151.939C119.745 141.532 132.198 143.685 144.251 145.773C156.553 147.894 168.172 149.917 180.68 139.89C193.187 129.862 193.805 118.03 194.455 105.534C195.095 93.2887 195.734 80.6189 208.719 70.2112C221.693 59.8144 234.146 61.9568 246.188 64.0449C258.49 66.1656 270.109 68.1884 282.617 58.1613C288.589 53.3762 291.84 48.1886 293.694 42.7183L295.07 34.6053H295.515C296.013 31.0926 296.198 27.482 296.382 23.8061C296.794 15.8019 297.227 7.62359 301.075 0.0217285L253.537 0.0543545ZM272.754 34.4748H279.788C280.742 34.5183 281.511 34.812 281.771 35.8342L283.31 43.2186C281.793 39.3579 278.173 36.1496 272.699 34.8228L272.754 34.4748ZM286.074 51.2881H281.284L277.219 37.3677C280.135 39.2491 282.617 42.2289 283.495 44.2953L283.972 46.0244L288.415 34.6271H293.217L286.074 51.2881Z" fill="url(#paint9_linear_475_160)"/>
<path d="M272.699 34.812L272.754 34.4749H279.788C280.742 34.5184 281.511 34.812 281.771 35.8343L283.31 43.2186C281.804 39.347 278.173 36.1388 272.699 34.812Z" fill="url(#paint10_linear_475_160)"/>
<path d="M283.495 44.3061L283.972 46.0353L288.416 34.6379H293.217L286.074 51.299H281.284L277.219 37.3785C280.135 39.26 282.617 42.2289 283.495 44.3061Z" fill="url(#paint11_linear_475_160)"/>
<path d="M350.9 10.4077C349.22 7.53661 346.879 5.13316 344.072 3.33873C340.788 1.21804 336.875 0 332.691 0L302.527 0.0217507C298.539 7.43874 298.116 15.4974 297.683 23.8714C297.498 27.4385 297.325 31.0382 296.826 34.6053H299.601L296.761 51.299H292.231L292.784 48.0581C290.757 51.9624 287.776 55.7035 283.43 59.1945C270.456 69.5913 258.002 67.4271 245.95 65.3608C233.648 63.2184 222.029 61.2173 209.521 71.2444C197.003 81.2715 196.396 93.0929 195.745 105.6C195.106 117.845 194.456 130.515 181.482 140.923C168.508 151.32 156.065 149.177 144.013 147.089C131.711 144.947 120.081 142.946 107.562 152.973C95.0438 163 94.4369 174.821 93.7866 187.328C93.1471 199.573 92.5076 212.243 79.5229 222.651C78.7859 223.249 78.0381 223.793 77.301 224.304L148.511 224.25C148.706 222.042 148.825 219.78 148.944 217.518C149.584 205.272 150.234 192.602 163.208 182.195C176.182 171.798 188.635 173.94 200.688 176.028C212.99 178.149 224.609 180.172 237.116 170.145C249.624 160.118 250.242 148.285 250.892 135.79C251.532 123.544 252.171 110.874 265.156 100.466C278.13 90.0696 290.583 92.212 302.625 94.3001C314.927 96.4208 326.546 98.4436 339.054 88.4166C351.572 78.3895 352.179 66.568 352.829 54.0613C352.981 50.9619 353.155 47.8406 353.523 44.7412L353.501 20.587C353.501 16.9003 352.569 13.4202 350.9 10.4077ZM304.663 51.56C302.625 51.5383 300.674 51.125 299.612 50.6682L300.251 46.9271L300.826 47.1881C302.311 47.808 303.286 48.069 305.096 48.069C306.397 48.069 307.795 47.5579 307.817 46.4377C307.828 45.6982 307.221 45.1762 305.465 44.3605C303.731 43.5666 301.454 42.229 301.487 39.8364C301.509 36.5955 304.673 34.3117 309.15 34.3117C310.906 34.3117 312.326 34.6815 313.214 35.0186L312.597 38.6292L312.185 38.4443C311.339 38.1072 310.266 37.7918 308.781 37.8027C307.015 37.8027 306.18 38.5531 306.18 39.2491C306.169 40.0213 307.156 40.5433 308.738 41.3154C311.35 42.5117 312.564 43.9473 312.531 45.8613C312.521 49.3088 309.421 51.5491 304.663 51.56ZM324.324 51.2881C324.324 51.2881 323.912 49.3741 323.771 48.7977H317.962C317.788 49.2327 317.008 51.2881 317.008 51.2881H312.239L318.959 35.9648C319.436 34.8881 320.259 34.5836 321.343 34.5836H324.844L328.529 51.2772L324.324 51.2881Z" fill="url(#paint12_linear_475_160)"/>
<path d="M301.476 39.8255C301.498 36.5846 304.663 34.3008 309.139 34.3008C310.895 34.3008 312.315 34.6705 313.203 35.0077L312.586 38.6183L312.174 38.4334C311.328 38.0963 310.255 37.7809 308.77 37.7918C307.004 37.7918 306.169 38.5422 306.169 39.2382C306.158 40.0103 307.145 40.5324 308.727 41.3045C311.339 42.5008 312.553 43.9363 312.521 45.8504C312.499 49.3196 309.399 51.56 304.641 51.56C302.603 51.5382 300.652 51.1249 299.59 50.6682L300.23 46.9271L300.804 47.1881C302.289 47.808 303.264 48.069 305.074 48.069C306.375 48.069 307.773 47.5578 307.795 46.4377C307.806 45.6981 307.199 45.1761 305.443 44.3605C303.72 43.5666 301.454 42.218 301.476 39.8255Z" fill="url(#paint13_linear_475_160)"/>
<path d="M312.239 51.299L318.959 35.9757C319.436 34.899 320.259 34.5945 321.343 34.5945H324.844L328.529 51.2881H324.313C324.313 51.2881 323.901 49.3741 323.76 48.7977H317.951C317.777 49.2327 316.997 51.2881 316.997 51.2881L312.239 51.299Z" fill="url(#paint14_linear_475_160)"/>
<path d="M353.534 62.8378L353.588 135.539C345.351 137.965 337.287 136.562 328.909 135.126C316.867 133.038 304.413 130.885 291.439 141.293C278.455 151.689 277.804 164.359 277.176 176.616C276.525 189.111 275.919 200.944 263.4 210.971C250.881 220.998 239.262 218.986 226.971 216.854C214.919 214.766 202.465 212.613 189.491 223.021C188.993 223.412 188.505 223.825 188.05 224.239L149.844 224.271C150.028 222.042 150.147 219.823 150.256 217.605C150.906 205.087 151.513 193.277 164.031 183.25C176.55 173.223 188.169 175.224 200.482 177.366C212.534 179.454 224.977 181.607 237.951 171.2C250.925 160.803 251.586 148.133 252.214 135.877C252.865 123.359 253.472 111.548 265.99 101.521C278.509 91.4943 290.128 93.4954 302.419 95.6378C314.471 97.715 326.925 99.8792 339.899 89.4715C349.805 81.4999 352.515 72.2232 353.534 62.8378Z" fill="url(#paint15_linear_475_160)"/>
<path d="M350.9 10.4077C352.569 13.4202 353.501 16.9003 353.501 20.587L353.523 44.7411C353.155 47.8515 352.992 50.9727 352.829 54.0613C352.179 66.5788 351.572 78.3895 339.054 88.4165C326.535 98.4436 314.916 96.4317 302.625 94.3001C290.583 92.212 278.13 90.0587 265.156 100.466C252.171 110.863 251.521 123.533 250.892 135.79C250.242 148.285 249.635 160.118 237.116 170.145C224.598 180.172 212.979 178.16 200.688 176.028C188.635 173.94 176.182 171.787 163.208 182.195C150.234 192.591 149.573 205.261 148.944 217.518C148.825 219.78 148.717 222.031 148.511 224.25L77.301 224.304C78.038 223.804 78.7859 223.249 79.5229 222.651C92.5076 212.254 93.1579 199.584 93.7865 187.328C94.4368 174.81 95.0438 163 107.562 152.973C120.081 142.946 131.711 144.947 144.013 147.089C156.065 149.177 168.508 151.33 181.482 140.923C194.456 130.526 195.117 117.856 195.745 105.6C196.396 93.0821 197.003 81.2714 209.521 71.2444C222.04 61.2173 233.659 63.2184 245.95 65.3608C258.002 67.438 270.456 69.6022 283.43 59.1945C287.776 55.7035 290.746 51.9624 292.783 48.0581L292.231 51.299H296.761L299.601 34.6053H296.826C297.325 31.0382 297.509 27.4385 297.683 23.8714C298.105 15.4973 298.539 7.43871 302.527 0.0217285H301.075C297.216 7.62359 296.794 15.8019 296.382 23.8061C296.187 27.482 296.003 31.0926 295.515 34.6053H295.07L293.694 42.7183C291.83 48.1886 288.578 53.3762 282.617 58.1613C270.098 68.1884 258.479 66.1765 246.188 64.0449C234.147 61.9568 221.693 59.8035 208.719 70.2112C195.735 80.608 195.084 93.2778 194.456 105.534C193.805 118.03 193.198 129.862 180.68 139.89C168.161 149.917 156.542 147.905 144.251 145.773C132.199 143.685 119.745 141.532 106.771 151.939C93.7974 162.347 93.1037 175.028 92.475 187.273C91.8247 199.791 91.2178 211.602 78.6992 221.629C77.431 222.64 76.1846 223.543 74.9165 224.304L20.9402 224.347C13.2664 224.358 6.53566 220.258 2.82886 214.136C6.45979 220.628 13.3748 225.011 21.3087 225L332.843 224.772C344.538 224.761 354.011 215.234 354 203.51L353.87 21.2178C353.87 17.2592 352.797 13.5615 350.9 10.4077ZM353.642 202.858C353.653 214.592 344.169 224.108 332.485 224.119L190.088 224.217C190.153 224.152 190.229 224.097 190.315 224.032C202.834 214.005 214.464 216.006 226.765 218.149C238.818 220.237 251.261 222.39 264.235 211.982C277.208 201.585 277.87 188.916 278.498 176.659C279.149 164.142 279.755 152.331 292.274 142.304C304.793 132.277 316.412 134.278 328.703 136.42C336.821 137.812 345.101 139.248 353.599 136.866L353.642 202.858ZM353.588 135.539C345.351 137.965 337.287 136.562 328.909 135.126C316.867 133.038 304.413 130.885 291.44 141.292C278.455 151.689 277.805 164.359 277.176 176.616C276.526 189.111 275.919 200.944 263.4 210.971C250.881 220.998 239.262 218.986 226.971 216.854C214.919 214.766 202.465 212.613 189.491 223.021C188.993 223.412 188.505 223.825 188.05 224.239L149.844 224.271C150.028 222.042 150.147 219.823 150.256 217.605C150.906 205.087 151.513 193.277 164.032 183.25C176.55 173.222 188.169 175.224 200.482 177.366C212.534 179.454 224.977 181.607 237.951 171.2C250.925 160.803 251.586 148.133 252.215 135.877C252.865 123.359 253.472 111.548 265.99 101.521C278.509 91.4943 290.128 93.4953 302.419 95.6378C314.472 97.715 326.925 99.8792 339.899 89.4714C349.816 81.5216 352.526 72.2449 353.545 62.8595L353.588 135.539Z" fill="url(#paint16_linear_475_160)"/>
<path d="M353.588 136.866L353.632 202.858C353.642 214.592 344.159 224.108 332.475 224.119L190.077 224.217C190.142 224.152 190.218 224.097 190.305 224.032C202.823 214.005 214.453 216.006 226.755 218.149C238.807 220.237 251.25 222.39 264.224 211.982C277.198 201.585 277.859 188.916 278.487 176.659C279.138 164.142 279.745 152.331 292.263 142.304C304.782 132.277 316.401 134.278 328.692 136.42C336.799 137.812 345.091 139.259 353.588 136.866Z" fill="url(#paint17_linear_475_160)"/>
<path d="M36.0258 95.6425V97.4369L33.4895 97.3281L34.9744 99.3727L33.3812 100.33L32.1239 98.035L30.8666 100.33L29.3058 99.3727L30.7582 97.3281L28.2437 97.4478V95.6533L30.7582 95.7947L29.3058 93.7175L30.8666 92.7605L32.1239 95.0552L33.3812 92.7605L34.9744 93.7175L33.5004 95.7947L36.0258 95.6425Z" fill="white"/>
<path d="M49.1188 95.6315V97.4259L46.5826 97.3172L48.0675 99.3617L46.4742 100.319L45.2169 98.0241L43.9596 100.319L42.3989 99.3617L43.8512 97.3172L41.3367 97.4368V95.6424L43.8512 95.7837L42.3989 93.7065L43.9596 92.7495L45.2169 95.0442L46.4742 92.7495L48.0675 93.7065L46.5934 95.7837L49.1188 95.6315Z" fill="white"/>
<path d="M62.2118 95.6207V97.4152L59.6756 97.3064L61.1605 99.351L59.5672 100.308L58.3099 98.0133L57.0526 100.308L55.4919 99.351L56.9442 97.3064L54.4297 97.426V95.6316L56.9442 95.773L55.4919 93.6958L57.0526 92.7388L58.3099 95.0335L59.5672 92.7388L61.1605 93.6958L59.6864 95.773L62.2118 95.6207Z" fill="white"/>
<path d="M75.3048 95.6098V97.4042L72.7686 97.2954L74.2535 99.34L72.6602 100.297L71.4029 98.0023L70.1456 100.297L68.5849 99.34L70.0373 97.2954L67.5227 97.4151V95.6206L70.0373 95.762L68.5849 93.6848L70.1456 92.7278L71.4029 95.0225L72.6602 92.7278L74.2535 93.6848L72.7794 95.762L75.3048 95.6098Z" fill="white"/>
<path d="M97.4699 95.588V97.3825L94.9336 97.2737L96.4185 99.3183L94.8252 100.275L93.568 97.9806L92.3107 100.275L90.7499 99.3183L92.2023 97.2737L89.6877 97.3933V95.5989L92.2023 95.7403L90.7499 93.6631L92.3107 92.7061L93.568 95.0008L94.8252 92.7061L96.4185 93.6631L94.9445 95.7403L97.4699 95.588Z" fill="white"/>
<path d="M110.563 95.588V97.3825L108.027 97.2737L109.512 99.3183L107.918 100.275L106.661 97.9806L105.404 100.275L103.843 99.3183L105.295 97.2737L102.781 97.3933V95.5989L105.295 95.7403L103.843 93.6631L105.404 92.7061L106.661 95.0008L107.918 92.7061L109.512 93.6631L108.037 95.7403L110.563 95.588Z" fill="white"/>
<path d="M123.656 95.5772V97.3716L121.109 97.252L122.594 99.2965L121.001 100.254L119.743 97.9589L118.486 100.254L116.925 99.2965L118.378 97.252L115.863 97.3716V95.5772L118.378 95.7185L116.925 93.6414L118.486 92.6843L119.743 94.979L121.001 92.6843L122.594 93.6414L121.12 95.7185L123.656 95.5772Z" fill="white"/>
<path d="M136.749 95.5663V97.3607L134.202 97.252L135.687 99.2965L134.094 100.254L132.836 97.9589L131.579 100.254L130.018 99.2965L131.471 97.252L128.956 97.3716V95.5772L131.471 95.7185L130.018 93.6414L131.579 92.6843L132.836 94.979L134.094 92.6843L135.687 93.6305L134.213 95.7077L136.749 95.5663Z" fill="white"/>
<path d="M158.914 95.5446V97.339L156.378 97.2302L157.863 99.2748L156.269 100.232L155.012 97.9371L153.755 100.232L152.194 99.2748L153.646 97.2302L151.132 97.3499V95.5554L153.646 95.6968L152.194 93.6196L153.755 92.6626L155.012 94.9573L156.269 92.6626L157.863 93.6196L156.389 95.6968L158.914 95.5446Z" fill="white"/>
<path d="M171.996 95.5446V97.339L169.46 97.2302L170.945 99.2748L169.352 100.232L168.094 97.9371L166.837 100.232L165.276 99.2748L166.729 97.2302L164.214 97.3499V95.5554L166.729 95.6968L165.276 93.6196L166.837 92.6626L168.094 94.9573L169.352 92.6626L170.945 93.6088L169.471 95.6859L171.996 95.5446Z" fill="white"/>
<path d="M185.089 95.5336V97.328L182.553 97.2193L184.038 99.2638L182.445 100.221L181.187 97.9262L179.93 100.221L178.369 99.2638L179.822 97.2193L177.307 97.3389V95.5445L179.822 95.6858L178.369 93.6086L179.93 92.6516L181.187 94.9463L182.445 92.6516L184.038 93.6086L182.564 95.6858L185.089 95.5336Z" fill="white"/>
<path d="M198.182 95.5228V97.3173L195.646 97.2085L197.131 99.2531L195.538 100.21L194.28 97.9154L193.023 100.21L191.462 99.2531L192.915 97.2085L190.4 97.3281V95.5337L192.915 95.6751L191.462 93.5979L193.023 92.6409L194.28 94.9356L195.538 92.6409L197.131 93.5979L195.657 95.6751L198.182 95.5228Z" fill="white"/>
<path d="M211.958 112.597V110.465L218.851 103.396C220.694 101.548 221.615 99.9599 221.615 98.6331C221.615 97.5347 221.279 96.6755 220.607 96.0556C219.935 95.4357 219.122 95.1312 218.147 95.1312C216.304 95.1312 214.96 96.0121 214.126 97.7631L211.947 96.4798C212.554 95.2074 213.41 94.2503 214.494 93.5978C215.578 92.9453 216.792 92.619 218.104 92.6082C219.74 92.6082 221.16 93.1519 222.374 94.2286C223.588 95.3161 224.195 96.7625 224.195 98.6005C224.195 100.58 223.035 102.744 220.716 105.082L215.73 110.063L224.563 110.052V112.575L211.958 112.597Z" fill="white"/>
<path d="M236.28 101.004C237.776 101.287 238.99 101.928 239.943 102.94C240.897 103.951 241.374 105.223 241.374 106.779C241.374 108.682 240.724 110.183 239.423 111.292C238.123 112.401 236.54 112.945 234.676 112.945C233.191 112.945 231.869 112.608 230.709 111.923C229.56 111.238 228.736 110.259 228.249 108.965L230.427 107.67C231.002 109.487 232.421 110.389 234.676 110.389C235.89 110.389 236.876 110.074 237.635 109.432C238.393 108.801 238.784 107.91 238.773 106.768C238.773 105.626 238.393 104.734 237.624 104.092C236.865 103.451 235.879 103.125 234.665 103.125H233.993L232.963 101.526L237.483 95.3921L228.801 95.403V92.9669L240.529 92.9561L240.518 95.2399L236.28 101.004Z" fill="white"/>
<path d="M260.656 106.398V108.834H258.282V112.564H255.692V108.834L245.731 108.845V106.409L252.733 92.9561H255.529L248.528 106.409H255.703V100.862H258.293V106.409L260.656 106.398Z" fill="white"/>
<path d="M270.866 100.591C272.709 100.591 274.269 101.134 275.548 102.222C276.827 103.31 277.467 104.821 277.467 106.746C277.467 108.649 276.817 110.15 275.516 111.259C274.215 112.369 272.633 112.912 270.769 112.912C269.284 112.912 267.951 112.554 266.78 111.836C265.609 111.118 264.786 110.074 264.32 108.715L266.52 107.453C266.78 108.41 267.289 109.128 268.026 109.628C268.774 110.128 269.685 110.368 270.758 110.368C271.982 110.368 272.98 110.052 273.749 109.411C274.508 108.78 274.887 107.888 274.887 106.746C274.887 105.604 274.508 104.712 273.738 104.071C272.969 103.429 271.993 103.103 270.801 103.103H265.273L265.967 92.9345L276.686 92.9236V95.3597L268.341 95.3705L268.005 100.58L270.866 100.591Z" fill="white"/>
<path d="M29.9453 166.278C28.8072 166.278 27.8642 165.897 27.1164 165.147C26.3685 164.396 26 163.461 26 162.363C26 161.264 26.3685 160.329 27.1164 159.579C27.8534 158.817 28.7964 158.448 29.9453 158.448C30.6389 158.448 31.2676 158.611 31.842 158.948C32.4165 159.274 32.8717 159.72 33.1968 160.285L32.3298 160.797C32.113 160.383 31.7878 160.046 31.3651 159.796C30.9424 159.546 30.4655 159.426 29.9453 159.426C29.0782 159.426 28.3628 159.709 27.8209 160.275C27.2681 160.84 26.9972 161.536 26.9972 162.384C26.9972 163.222 27.2681 163.918 27.8209 164.483C28.3737 165.049 29.0782 165.321 29.9453 165.321C30.4655 165.321 30.9316 165.201 31.3651 164.951C31.7878 164.701 32.113 164.375 32.3298 163.961L33.2077 164.462C32.8934 165.027 32.4381 165.473 31.8637 165.81C31.2676 166.115 30.6389 166.278 29.9453 166.278Z" fill="white"/>
<path d="M38.6596 160.731H39.5917V166.136H38.6596V165.212C38.1936 165.93 37.5107 166.278 36.622 166.289C35.8633 166.289 35.2238 166.017 34.6927 165.462C34.1616 164.907 33.8906 164.244 33.8906 163.45C33.8906 162.656 34.1508 161.982 34.6818 161.438C35.2129 160.883 35.8524 160.612 36.6111 160.612C37.4999 160.612 38.1827 160.97 38.6488 161.677V160.731H38.6596ZM36.752 165.364C37.2939 165.364 37.7492 165.179 38.1177 164.809C38.4862 164.44 38.6705 163.983 38.6705 163.428C38.6705 162.885 38.4862 162.428 38.1177 162.047C37.7492 161.677 37.2939 161.492 36.752 161.492C36.2101 161.492 35.7657 161.677 35.3972 162.047C35.0287 162.417 34.8444 162.874 34.8444 163.428C34.8444 163.972 35.0287 164.429 35.3972 164.809C35.7549 165.179 36.2101 165.364 36.752 165.364Z" fill="white"/>
<path d="M41.9543 161.634C42.2578 160.96 42.8214 160.633 43.6343 160.633V161.612C43.1791 161.59 42.7781 161.71 42.4529 161.982C42.1278 162.254 41.9543 162.678 41.9543 163.265V166.125H41.0222V160.72H41.9543V161.634Z" fill="white"/>
<path d="M48.7176 158.567H49.6606V166.136H48.7285V165.212C48.2624 165.93 47.5796 166.278 46.6908 166.278C45.9321 166.278 45.2926 166.006 44.7615 165.451C44.2304 164.897 43.9595 164.233 43.9595 163.439C43.9595 162.645 44.2196 161.971 44.7507 161.427C45.2818 160.873 45.9213 160.601 46.68 160.601C47.5687 160.601 48.2516 160.96 48.7176 161.667V158.567ZM46.81 165.364C47.352 165.364 47.8072 165.179 48.1757 164.81C48.5442 164.44 48.7285 163.983 48.7285 163.428C48.7285 162.885 48.5442 162.417 48.1757 162.047C47.8072 161.677 47.352 161.493 46.81 161.493C46.2681 161.493 45.8237 161.677 45.4552 162.047C45.0867 162.417 44.9024 162.874 44.9024 163.428C44.9024 163.972 45.0867 164.429 45.4552 164.81C45.8129 165.179 46.2681 165.364 46.81 165.364Z" fill="white"/>
<path d="M58.5266 158.556H59.5129V166.125H58.5266V162.721H54.8631V166.125H53.866V158.556H54.8631V161.764H58.5266V158.556Z" fill="white"/>
<path d="M65.5827 165.429C65.0299 165.973 64.3579 166.256 63.5667 166.256C62.7755 166.256 62.1035 165.984 61.5615 165.44C61.0196 164.897 60.7378 164.222 60.7378 163.417C60.7378 162.613 61.0088 161.949 61.5615 161.395C62.1143 160.851 62.7755 160.568 63.5667 160.568C64.3579 160.568 65.0299 160.84 65.5827 161.384C66.1354 161.928 66.4172 162.602 66.4172 163.407C66.4172 164.211 66.1354 164.886 65.5827 165.429ZM63.5775 165.342C64.1194 165.342 64.5638 165.158 64.9323 164.788C65.3008 164.418 65.4851 163.961 65.4851 163.417C65.4851 162.874 65.3008 162.417 64.9323 162.047C64.5638 161.677 64.1086 161.493 63.5775 161.503C63.0464 161.503 62.602 161.688 62.2335 162.058C61.865 162.428 61.6808 162.885 61.6808 163.428C61.6808 163.972 61.865 164.429 62.2335 164.799C62.5912 165.158 63.0464 165.342 63.5775 165.342Z" fill="white"/>
<path d="M67.5227 166.115V158.23H68.4548L68.4657 166.115H67.5227Z" fill="white"/>
<path d="M74.351 158.545H75.2831V166.115H74.351V165.19C73.885 165.908 73.2021 166.256 72.3134 166.267C71.5547 166.267 70.9152 165.995 70.3841 165.44C69.853 164.886 69.582 164.222 69.582 163.428C69.582 162.635 69.8422 161.96 70.3732 161.417C70.9043 160.873 71.5438 160.59 72.3025 160.59C73.1913 160.59 73.8741 160.949 74.3402 161.656L74.351 158.545ZM72.4326 165.343C72.9745 165.343 73.4297 165.158 73.7982 164.788C74.1668 164.418 74.351 163.961 74.351 163.407C74.351 162.863 74.1668 162.395 73.7982 162.026C73.4297 161.656 72.9745 161.471 72.4326 161.471C71.8907 161.471 71.4463 161.656 71.0778 162.026C70.7092 162.395 70.525 162.852 70.525 163.407C70.525 163.95 70.7092 164.407 71.0778 164.788C71.4463 165.158 71.9015 165.343 72.4326 165.343Z" fill="white"/>
<path d="M77.3642 163.831C77.4617 164.309 77.6785 164.69 78.0254 164.951C78.3722 165.212 78.8057 165.353 79.3151 165.353C80.0305 165.353 80.5399 165.092 80.8651 164.559L81.6671 165.016C81.1469 165.832 80.3557 166.234 79.2935 166.234C78.4372 166.234 77.7436 165.962 77.2125 165.429C76.6814 164.897 76.4104 164.211 76.4104 163.396C76.4104 162.58 76.6705 161.906 77.1908 161.362C77.711 160.818 78.3939 160.546 79.2284 160.546C80.0197 160.546 80.6591 160.829 81.1577 161.384C81.6563 161.938 81.9056 162.613 81.9056 163.396C81.9056 163.537 81.8947 163.668 81.8731 163.82L77.3642 163.831ZM79.2284 161.449C78.7299 161.449 78.3072 161.59 77.982 161.873C77.6568 162.156 77.4509 162.537 77.3642 163.015H80.9626C80.8867 162.504 80.6808 162.112 80.3557 161.851C80.0305 161.58 79.662 161.449 79.2284 161.449Z" fill="white"/>
<path d="M83.9216 161.601C84.2251 160.927 84.7887 160.601 85.6016 160.601V161.58C85.1464 161.558 84.7454 161.677 84.4202 161.949C84.095 162.221 83.9216 162.645 83.9216 163.233V166.093H82.9895V160.688H83.9325V161.601H83.9216Z" fill="white"/>
<path d="M91.8879 160.557C92.5166 160.557 93.026 160.753 93.4053 161.156C93.7847 161.558 93.9798 162.102 93.9798 162.787V166.104H93.0368V162.841C93.0368 162.406 92.9176 162.058 92.6791 161.819C92.4407 161.58 92.1155 161.46 91.7037 161.46C91.2376 161.46 90.8583 161.612 90.5765 161.895C90.2838 162.189 90.1429 162.635 90.1429 163.244V166.104H89.2V160.699H90.1321V161.482C90.5331 160.862 91.1075 160.557 91.8879 160.557Z" fill="white"/>
<path d="M99.7459 160.688H100.678V166.093H99.735V165.169C99.269 165.886 98.5862 166.234 97.6974 166.234C96.9387 166.234 96.2992 165.962 95.7681 165.408C95.237 164.853 94.9661 164.19 94.9661 163.396C94.9661 162.602 95.2262 161.928 95.7573 161.384C96.2884 160.829 96.9278 160.557 97.6866 160.557C98.5753 160.557 99.2581 160.916 99.7242 161.623L99.7459 160.688ZM97.8275 165.321C98.3694 165.321 98.8246 165.136 99.1931 164.766C99.5616 164.396 99.7459 163.94 99.7459 163.385C99.7459 162.841 99.5616 162.374 99.1931 162.004C98.8246 161.634 98.3694 161.449 97.8275 161.449C97.2855 161.449 96.8411 161.634 96.4726 162.004C96.1041 162.374 95.9199 162.83 95.9199 163.385C95.9199 163.929 96.1041 164.385 96.4726 164.766C96.8411 165.136 97.2855 165.321 97.8275 165.321Z" fill="white"/>
<path d="M107.918 160.536C108.525 160.536 109.013 160.731 109.381 161.123C109.75 161.514 109.945 162.047 109.945 162.722V166.082H109.013V162.754C109.013 162.341 108.904 162.015 108.688 161.786C108.471 161.558 108.189 161.438 107.831 161.438C107.43 161.438 107.105 161.58 106.867 161.841C106.628 162.113 106.509 162.526 106.509 163.08V166.082H105.566V162.754C105.566 162.341 105.469 162.015 105.263 161.786C105.057 161.558 104.775 161.438 104.428 161.438C104.038 161.438 103.702 161.58 103.442 161.852C103.182 162.123 103.052 162.537 103.052 163.08V166.082H102.109V160.677H103.041V161.406C103.409 160.829 103.94 160.536 104.645 160.536C105.371 160.536 105.902 160.84 106.227 161.449C106.596 160.851 107.159 160.547 107.918 160.536Z" fill="white"/>
<path d="M111.896 163.809C111.993 164.288 112.21 164.668 112.557 164.929C112.904 165.201 113.337 165.332 113.847 165.332C114.562 165.332 115.072 165.071 115.397 164.538L116.199 164.994C115.679 165.81 114.887 166.212 113.825 166.212C112.969 166.212 112.275 165.941 111.744 165.408C111.213 164.875 110.942 164.19 110.942 163.374C110.942 162.558 111.202 161.884 111.723 161.34C112.243 160.797 112.926 160.525 113.76 160.525C114.551 160.525 115.191 160.807 115.689 161.362C116.188 161.917 116.437 162.591 116.437 163.374C116.437 163.515 116.426 163.646 116.405 163.798L111.896 163.809ZM113.76 161.416C113.262 161.416 112.839 161.558 112.514 161.841C112.189 162.123 111.983 162.504 111.896 162.982H115.494C115.418 162.471 115.213 162.08 114.887 161.819C114.573 161.558 114.194 161.416 113.76 161.416Z" fill="white"/>
<path d="M33.3485 177.001H35.6246L35.6354 188.572H33.9012L28.9588 181.503V188.572H26.6827L26.6719 177.001H28.3952L33.3485 184.048V177.001Z" fill="white"/>
<path d="M44.6856 187.528C43.8402 188.376 42.8106 188.801 41.5858 188.801C40.3719 188.801 39.3314 188.376 38.4968 187.539C37.6622 186.702 37.2395 185.668 37.2395 184.44C37.2395 183.221 37.6622 182.188 38.4968 181.34C39.3422 180.492 40.361 180.079 41.5858 180.068C42.8106 180.068 43.8402 180.492 44.6856 181.329C45.531 182.177 45.9537 183.211 45.9537 184.429C45.9537 185.658 45.531 186.691 44.6856 187.528ZM39.9925 186.071C40.4152 186.495 40.9463 186.712 41.5858 186.712C42.2253 186.712 42.7564 186.495 43.1791 186.071C43.6126 185.636 43.8185 185.092 43.8185 184.44C43.8185 183.776 43.6018 183.232 43.1791 182.808C42.7564 182.384 42.2144 182.167 41.5858 182.167C40.9463 182.167 40.4152 182.384 40.0033 182.808C39.5806 183.232 39.3639 183.787 39.3747 184.44C39.3639 185.103 39.5698 185.647 39.9925 186.071Z" fill="white"/>
<path d="M56.5538 180.068C57.4968 180.068 58.2555 180.372 58.8191 180.992C59.3827 181.612 59.6645 182.438 59.6645 183.472V188.561H57.5402V183.624C57.5402 183.124 57.4209 182.743 57.1716 182.471C56.9332 182.199 56.5864 182.058 56.1528 182.058C55.6651 182.058 55.2966 182.221 55.0256 182.536C54.7546 182.852 54.6246 183.319 54.6246 183.928V188.572H52.5002V183.635C52.5002 183.134 52.381 182.754 52.1317 182.482C51.8932 182.21 51.5464 182.069 51.1129 182.069C50.636 182.069 50.2674 182.232 49.9856 182.547C49.7038 182.863 49.5629 183.33 49.5629 183.939V188.583H47.4386L47.4277 180.318H49.5521V181.188C50.0507 180.448 50.8094 180.079 51.839 180.079C52.847 180.079 53.5949 180.47 54.0826 181.264C54.6463 180.459 55.47 180.068 56.5538 180.068Z" fill="white"/>
<path d="M67.7394 180.285H69.8638L69.8746 188.551H67.7503V187.572C67.1108 188.377 66.222 188.779 65.0623 188.779C63.9676 188.779 63.0246 188.355 62.2334 187.517C61.453 186.68 61.052 185.647 61.052 184.418C61.052 183.2 61.4422 182.167 62.2226 181.318C63.003 180.481 63.9459 180.057 65.0514 180.057C66.2003 180.057 67.0999 180.459 67.7394 181.264V180.285ZM63.8267 186.104C64.2602 186.539 64.8022 186.756 65.4633 186.756C66.1245 186.756 66.6664 186.539 67.0999 186.104C67.5335 185.669 67.7503 185.114 67.7503 184.429C67.7503 183.744 67.5335 183.189 67.0999 182.754C66.6664 182.319 66.1245 182.101 65.4633 182.101C64.8022 182.101 64.2602 182.319 63.8375 182.754C63.4148 183.189 63.198 183.755 63.198 184.429C63.1764 185.103 63.3931 185.669 63.8267 186.104Z" fill="white"/>
<path d="M76.3669 180.046C77.2665 180.046 78.0143 180.35 78.5996 180.949C79.1849 181.558 79.4775 182.395 79.4884 183.461V188.54H77.364V183.733C77.364 183.178 77.2123 182.765 76.9196 182.471C76.627 182.177 76.226 182.036 75.7382 182.036C75.1855 182.036 74.7519 182.21 74.4159 182.547C74.0908 182.884 73.9173 183.406 73.9282 184.081V188.54H71.8038L71.793 180.274H73.9173V181.199C74.4376 180.437 75.2505 180.046 76.3669 180.046Z" fill="white"/>
<path d="M96.7977 176.957L96.8086 188.529H94.5541V181.025L91.3026 186.397L91.0316 186.408L87.7908 181.057V188.529H85.5147L85.5039 176.957H87.845L91.1508 182.417L94.4349 176.947L96.7977 176.957Z" fill="white"/>
<path d="M105.1 180.264H107.224L107.235 188.529H105.111V187.55C104.471 188.355 103.583 188.757 102.423 188.757C101.328 188.757 100.385 188.333 99.594 187.496C98.8136 186.658 98.4126 185.625 98.4126 184.396C98.4126 183.178 98.8028 182.145 99.5832 181.297C100.364 180.448 101.307 180.035 102.412 180.035C103.561 180.035 104.461 180.438 105.1 181.242V180.264ZM101.187 186.071C101.621 186.506 102.163 186.724 102.824 186.724C103.485 186.724 104.027 186.506 104.461 186.071C104.894 185.636 105.111 185.07 105.111 184.396C105.111 183.711 104.894 183.156 104.461 182.721C104.027 182.286 103.485 182.069 102.824 182.069C102.163 182.069 101.621 182.286 101.198 182.721C100.775 183.156 100.559 183.711 100.559 184.396C100.537 185.081 100.754 185.636 101.187 186.071Z" fill="white"/>
<path d="M113.728 180.024C114.627 180.024 115.375 180.329 115.96 180.927C116.546 181.536 116.838 182.373 116.849 183.439V188.518H114.725V183.711C114.725 183.156 114.573 182.743 114.28 182.449C113.988 182.156 113.587 182.014 113.099 182.014C112.546 182.014 112.113 182.188 111.777 182.526C111.452 182.863 111.278 183.385 111.289 184.059V188.518H109.165L109.154 180.253H111.278V181.177C111.788 180.405 112.611 180.024 113.728 180.024Z" fill="white"/>
<path d="M121.152 186.517H124.805V188.518H118.312V187.104L121.781 182.254H118.475V180.253H124.642V181.666L121.152 186.517Z" fill="white"/>
<path d="M132.89 187.474C132.045 188.322 131.015 188.746 129.79 188.746C128.576 188.746 127.536 188.322 126.701 187.485C125.867 186.647 125.444 185.614 125.444 184.385C125.444 183.167 125.867 182.134 126.701 181.286C127.547 180.438 128.566 180.024 129.79 180.013C131.015 180.013 132.045 180.438 132.89 181.275C133.736 182.123 134.158 183.146 134.158 184.374C134.158 185.592 133.736 186.626 132.89 187.474ZM128.208 186.017C128.631 186.441 129.162 186.658 129.801 186.658C130.441 186.658 130.972 186.441 131.394 186.017C131.828 185.582 132.034 185.038 132.034 184.385C132.034 183.722 131.817 183.178 131.394 182.754C130.972 182.33 130.43 182.112 129.801 182.112C129.162 182.112 128.631 182.33 128.219 182.754C127.796 183.178 127.579 183.733 127.59 184.385C127.568 185.038 127.785 185.582 128.208 186.017Z" fill="white"/>
<path d="M142.678 187.463C141.832 188.311 140.802 188.725 139.578 188.735C138.364 188.735 137.323 188.311 136.489 187.474C135.654 186.637 135.231 185.603 135.231 184.374C135.231 183.156 135.654 182.112 136.489 181.275C137.334 180.427 138.353 180.013 139.578 180.013C140.802 180.013 141.832 180.438 142.678 181.275C143.523 182.112 143.946 183.146 143.946 184.374C143.946 185.582 143.523 186.615 142.678 187.463ZM137.995 186.006C138.418 186.441 138.949 186.647 139.589 186.647C140.228 186.647 140.759 186.43 141.182 186.006C141.615 185.571 141.821 185.027 141.821 184.364C141.821 183.7 141.605 183.156 141.182 182.732C140.759 182.297 140.217 182.091 139.589 182.091C138.949 182.091 138.418 182.308 138.006 182.732C137.583 183.156 137.367 183.711 137.377 184.364C137.356 185.027 137.573 185.571 137.995 186.006Z" fill="white"/>
<path d="M147.566 181.645C147.761 181.112 148.086 180.72 148.541 180.459C148.997 180.198 149.506 180.057 150.07 180.057V182.439C149.419 182.362 148.845 182.493 148.335 182.841C147.826 183.178 147.566 183.744 147.566 184.548V188.496H145.441L145.431 180.231H147.555V181.645H147.566Z" fill="white"/>
<path d="M258.781 165.027H262.282V165.973H257.784V158.404H262.228V159.361H258.781V161.688H261.957V162.624H258.781V165.027Z" fill="white"/>
<path d="M268.059 165.963H266.964L265.446 163.918L263.94 165.963H262.845L264.905 163.178L262.964 160.558H264.07L265.457 162.428L266.845 160.547H267.939L265.999 163.168L268.059 165.963Z" fill="white"/>
<path d="M271.906 160.427C272.665 160.427 273.304 160.699 273.836 161.254C274.367 161.808 274.638 162.482 274.638 163.265C274.638 164.059 274.378 164.734 273.846 165.277C273.315 165.832 272.676 166.104 271.917 166.104C271.028 166.104 270.346 165.745 269.879 165.038V168.127H268.947L268.937 160.558H269.879V161.482C270.335 160.775 271.018 160.427 271.906 160.427ZM271.787 165.201C272.329 165.201 272.773 165.016 273.142 164.647C273.51 164.277 273.695 163.82 273.695 163.265C273.695 162.722 273.51 162.254 273.142 161.884C272.773 161.515 272.318 161.33 271.787 161.33C271.245 161.33 270.79 161.515 270.421 161.884C270.053 162.254 269.869 162.711 269.869 163.265C269.869 163.809 270.053 164.266 270.421 164.647C270.79 165.016 271.245 165.201 271.787 165.201Z" fill="white"/>
<path d="M276.22 159.579C276.036 159.579 275.895 159.513 275.765 159.394C275.646 159.274 275.581 159.122 275.581 158.948C275.581 158.774 275.646 158.622 275.765 158.502C275.884 158.372 276.036 158.317 276.22 158.317C276.394 158.317 276.535 158.382 276.665 158.502C276.784 158.633 276.849 158.774 276.849 158.948C276.849 159.122 276.784 159.263 276.665 159.394C276.545 159.513 276.394 159.579 276.22 159.579ZM275.754 165.963V160.557H276.697V165.963H275.754Z" fill="white"/>
<path d="M279.049 161.46C279.353 160.786 279.916 160.459 280.729 160.459V161.438C280.274 161.416 279.873 161.536 279.548 161.808C279.222 162.08 279.049 162.504 279.049 163.091V165.952H278.117V160.546H279.06V161.46H279.049Z" fill="white"/>
<path d="M285.531 160.557H286.528L284.338 166.3C284.111 166.909 283.786 167.376 283.374 167.702C282.962 168.018 282.485 168.17 281.943 168.127V167.257C282.604 167.311 283.081 166.941 283.385 166.147L283.482 165.941L281.13 160.557H282.127L283.926 164.701L285.531 160.557Z" fill="white"/>
<path d="M293.042 158.382C294.071 158.382 294.917 158.752 295.6 159.481C296.282 160.209 296.618 161.101 296.618 162.167C296.618 163.222 296.282 164.125 295.6 164.853C294.917 165.582 294.071 165.952 293.042 165.952H290.104L290.094 158.382H293.042ZM293.042 164.995C293.811 164.995 294.44 164.723 294.928 164.179C295.415 163.635 295.654 162.961 295.654 162.156C295.654 161.351 295.404 160.677 294.917 160.133C294.429 159.589 293.8 159.328 293.031 159.328H291.091V164.995H293.042Z" fill="white"/>
<path d="M302.2 160.536H303.132V165.941H302.189V165.016C301.723 165.734 301.041 166.082 300.152 166.093C299.393 166.093 298.754 165.821 298.222 165.266C297.691 164.712 297.42 164.048 297.42 163.254C297.42 162.461 297.681 161.786 298.212 161.243C298.743 160.688 299.382 160.416 300.141 160.416C301.03 160.416 301.712 160.775 302.179 161.482L302.2 160.536ZM300.282 165.179C300.824 165.179 301.279 164.995 301.647 164.625C302.016 164.255 302.2 163.798 302.2 163.244C302.2 162.7 302.016 162.232 301.647 161.862C301.279 161.493 300.824 161.308 300.282 161.308C299.74 161.308 299.295 161.493 298.927 161.862C298.558 162.232 298.374 162.689 298.374 163.244C298.374 163.787 298.558 164.244 298.927 164.625C299.295 164.995 299.74 165.179 300.282 165.179Z" fill="white"/>
<path d="M307.479 161.449H306.048V164.375C306.048 164.647 306.102 164.831 306.2 164.94C306.308 165.049 306.46 165.114 306.677 165.114C306.894 165.114 307.154 165.114 307.479 165.092V165.941C306.655 166.05 306.059 165.984 305.68 165.745C305.3 165.506 305.105 165.049 305.105 164.375V161.449H304.043V160.547H305.105V159.318L306.037 159.035V160.547H307.468L307.479 161.449Z" fill="white"/>
<path d="M308.985 163.668C309.083 164.146 309.3 164.527 309.646 164.788C309.993 165.06 310.427 165.19 310.936 165.19C311.652 165.19 312.161 164.929 312.486 164.397L313.288 164.853C312.768 165.669 311.977 166.071 310.915 166.071C310.058 166.071 309.365 165.799 308.834 165.267C308.302 164.734 308.031 164.049 308.031 163.233C308.031 162.417 308.292 161.743 308.812 161.199C309.332 160.655 310.015 160.384 310.85 160.384C311.641 160.384 312.28 160.666 312.79 161.221C313.288 161.776 313.538 162.45 313.538 163.233C313.538 163.374 313.527 163.505 313.505 163.657L308.985 163.668ZM310.839 161.275C310.34 161.275 309.917 161.417 309.592 161.699C309.267 161.982 309.061 162.363 308.974 162.841H312.573C312.497 162.33 312.291 161.939 311.966 161.678C311.652 161.417 311.272 161.275 310.839 161.275Z" fill="white"/>
<path d="M265.457 186.984C264.677 188.072 263.582 188.616 262.184 188.627C260.775 188.627 259.68 188.083 258.9 186.995C258.12 185.908 257.729 184.45 257.729 182.634C257.729 180.818 258.12 179.361 258.9 178.273C259.68 177.186 260.775 176.631 262.173 176.631C263.582 176.631 264.666 177.175 265.447 178.262C266.227 179.35 266.617 180.807 266.617 182.623C266.628 184.44 266.238 185.897 265.457 186.984ZM260.016 185.951C260.526 186.734 261.241 187.126 262.173 187.126C263.105 187.126 263.832 186.734 264.341 185.951C264.85 185.168 265.111 184.059 265.1 182.623C265.089 181.188 264.84 180.079 264.33 179.296C263.821 178.513 263.095 178.11 262.162 178.11C261.23 178.11 260.504 178.502 260.006 179.285C259.496 180.068 259.247 181.177 259.247 182.623C259.258 184.059 259.518 185.168 260.016 185.951Z" fill="white"/>
<path d="M267.744 188.409V187.148L271.809 182.982C272.893 181.895 273.435 180.96 273.435 180.177C273.435 179.524 273.24 179.024 272.838 178.654C272.448 178.295 271.961 178.11 271.386 178.11C270.302 178.11 269.511 178.632 269.012 179.665L267.723 178.904C268.08 178.154 268.59 177.588 269.229 177.197C269.869 176.805 270.584 176.62 271.364 176.62C272.329 176.62 273.174 176.936 273.89 177.577C274.605 178.219 274.963 179.078 274.963 180.155C274.963 181.329 274.28 182.602 272.904 183.972L269.966 186.919H275.18V188.409H267.744Z" fill="white"/>
<path d="M277.326 190.03L276.469 190.051L283.049 175.196L283.905 175.174L277.326 190.03Z" fill="white"/>
<path d="M289.725 181.558C290.603 181.721 291.329 182.101 291.882 182.7C292.445 183.298 292.727 184.048 292.727 184.962C292.727 186.082 292.348 186.974 291.578 187.626C290.809 188.279 289.877 188.605 288.782 188.605C287.904 188.605 287.124 188.409 286.441 188.007C285.758 187.604 285.281 187.028 284.989 186.267L286.267 185.505C286.603 186.571 287.438 187.104 288.771 187.104C289.487 187.104 290.072 186.919 290.516 186.539C290.961 186.158 291.188 185.636 291.188 184.973C291.188 184.298 290.961 183.776 290.516 183.396C290.061 183.015 289.487 182.83 288.771 182.83H288.381L287.774 181.884L290.44 178.262H285.314V176.827H292.229L292.218 178.175L289.725 181.558Z" fill="white"/>
<path d="M301.81 186.963C301.03 188.05 299.935 188.605 298.537 188.605C297.128 188.605 296.033 188.061 295.253 186.974C294.472 185.886 294.082 184.429 294.082 182.613C294.082 180.796 294.472 179.339 295.253 178.252C296.033 177.164 297.128 176.62 298.526 176.609C299.935 176.609 301.019 177.153 301.799 178.241C302.58 179.328 302.97 180.785 302.97 182.602C302.97 184.418 302.591 185.864 301.81 186.963ZM296.38 185.919C296.889 186.702 297.605 187.093 298.537 187.093C299.469 187.093 300.195 186.702 300.705 185.919C301.214 185.136 301.474 184.026 301.474 182.602C301.474 181.166 301.214 180.057 300.705 179.274C300.195 178.491 299.469 178.088 298.537 178.099C297.605 178.099 296.879 178.491 296.38 179.274C295.871 180.057 295.621 181.166 295.621 182.613C295.621 184.037 295.871 185.136 296.38 185.919Z" fill="white"/>
<path d="M324.94 34.9471H321.439C320.344 34.9471 319.52 35.2517 319.054 36.3283L312.334 51.6517H317.103C317.103 51.6517 317.895 49.5962 318.057 49.1612H323.867C324.008 49.7376 324.42 51.6517 324.42 51.6517H328.636L324.94 34.9471ZM319.358 45.7355C319.726 44.7785 321.135 41.0482 321.135 41.0482C321.135 41.0482 321.526 40.0694 321.753 39.4713L322.057 40.9068C322.057 40.9068 322.935 44.8872 323.108 45.7355H319.358Z" fill="white"/>
<path d="M306.287 39.591C306.276 40.3631 307.262 40.8851 308.844 41.6573C311.457 42.8536 312.671 44.2891 312.638 46.2032C312.616 49.6724 309.516 51.9127 304.758 51.9127C302.721 51.891 300.77 51.4777 299.708 51.0209L300.347 47.2798L300.921 47.5408C302.406 48.1607 303.382 48.4217 305.192 48.4217C306.493 48.4217 307.891 47.9106 307.912 46.7904C307.923 46.0509 307.316 45.5289 305.56 44.7132C303.826 43.9193 301.55 42.5817 301.583 40.1891C301.604 36.9483 304.769 34.6644 309.246 34.6644C311.001 34.6644 312.421 35.0342 313.31 35.3713L312.692 38.9819L312.28 38.7971C311.435 38.4599 310.362 38.1445 308.877 38.1554C307.11 38.1445 306.287 38.8949 306.287 39.591Z" fill="white"/>
<path d="M299.686 34.958L296.857 51.6517H292.326L292.879 48.4108L293.779 43.0819L295.144 34.9689L299.686 34.958Z" fill="white"/>
<path d="M283.406 43.5604C281.889 39.6997 278.269 36.4914 272.795 35.1647L272.849 34.8275H279.884C280.837 34.871 281.607 35.1647 281.867 36.1869L283.406 43.5604Z" fill="white"/>
<path d="M293.313 34.9799L286.17 51.6409H281.379L277.315 37.7204C280.231 39.6019 282.713 42.5817 283.591 44.648L284.067 46.3772L288.511 34.9799H293.313Z" fill="white"/>
<path d="M62.678 36.1435L62.6888 55.5016C62.6888 57.7854 60.8246 59.656 58.5593 59.656L31.918 59.6778C29.631 59.6778 27.7668 57.8072 27.7668 55.5342L27.7451 36.1761C27.7451 33.8814 29.6094 32.0218 31.8855 32.0218L58.5376 32C60.8137 32 62.678 33.8488 62.678 36.1435Z" fill="#F6C859"/>
<path d="M41.2177 55.9801C41.066 55.9801 40.9251 55.904 40.86 55.7626C40.7625 55.5668 40.8383 55.3167 41.0334 55.2188C41.6187 54.9143 42.4099 54.3488 42.876 53.3809C43.4613 52.1411 43.3096 50.7926 43.0603 50.6729C42.9952 50.6403 42.7568 50.7708 42.605 50.8469C42.2257 51.0427 41.6946 51.3146 41.0876 51.0971C40.4915 50.8904 40.1989 50.3575 40.058 50.0965C39.1367 48.4109 38.8549 44.039 39.8195 41.8639C40.1447 41.1461 40.5782 40.7111 41.1202 40.5806C41.6729 40.4501 42.1281 40.6785 42.4858 40.8742C42.7785 41.0265 42.9302 41.0917 43.0277 41.0374C43.4071 40.809 43.3963 39.4169 42.8652 38.3185C42.3991 37.3398 41.6079 36.7742 41.0226 36.4806C40.8275 36.3827 40.7408 36.1326 40.8492 35.9368C40.9467 35.7411 41.196 35.6541 41.3911 35.7628C42.0848 36.1217 43.0386 36.796 43.5914 37.9814C44.1441 39.1451 44.4043 41.157 43.4396 41.7443C42.9519 42.0379 42.4858 41.7986 42.1173 41.6138C41.8355 41.4724 41.5645 41.331 41.3044 41.3963C40.9467 41.4833 40.7083 41.8857 40.5565 42.2119C39.7111 44.1151 39.9604 48.2477 40.7625 49.7268C40.9034 49.9769 41.066 50.2488 41.3478 50.3467C41.6187 50.4445 41.8789 50.3249 42.2365 50.14C42.5942 49.9552 42.9844 49.7594 43.4071 49.9552C44.3175 50.401 44.2525 52.3477 43.6022 53.7398C43.0386 54.9252 42.0956 55.5995 41.402 55.9583C41.3369 55.9692 41.2719 55.9801 41.2177 55.9801Z" fill="#7D662D"/>
<path d="M39.9928 42.5926H32.7201C32.4925 42.5926 32.3191 42.4077 32.3191 42.1902C32.3191 41.9727 32.4925 41.7878 32.7093 41.7878H39.982C40.2096 41.7878 40.383 41.9727 40.383 42.1902C40.3939 42.4077 40.2204 42.5926 39.9928 42.5926Z" fill="#7D662D"/>
<path d="M39.9928 49.9008H32.7201C32.4925 49.9008 32.3191 49.716 32.3191 49.4985C32.3191 49.2701 32.5033 49.0961 32.7201 49.0961H39.9928C40.2204 49.0961 40.3939 49.2809 40.3939 49.4985C40.4047 49.716 40.2204 49.9008 39.9928 49.9008Z" fill="#7D662D"/>
<path d="M49.7041 55.9692C49.6391 55.9692 49.574 55.9584 49.5199 55.9257C48.8262 55.5668 47.8724 54.8926 47.3196 53.7072C46.6585 52.3151 46.6043 50.3684 47.5039 49.9225C47.9266 49.7159 48.3276 49.9225 48.6744 50.0965C49.043 50.2814 49.3031 50.4011 49.5632 50.3032C49.8667 50.1944 50.0401 49.879 50.1485 49.6833C50.9506 48.2042 51.189 44.0607 50.3436 42.1684C50.1918 41.8422 49.9534 41.4289 49.5957 41.3528C49.379 41.2984 49.2381 41.0809 49.2922 40.8634C49.3464 40.6459 49.5632 40.5154 49.78 40.5589C50.3219 40.6894 50.7555 41.1135 51.0806 41.8313C52.0561 44.0064 51.7743 48.3891 50.853 50.0639C50.7121 50.3249 50.4195 50.8578 49.8233 51.0645C49.2164 51.282 48.6853 51.0101 48.3059 50.8143C48.1542 50.7382 47.9157 50.6186 47.8507 50.6403C47.6123 50.7599 47.4497 52.1085 48.0458 53.3483C48.5119 54.3271 49.3031 54.8926 49.8884 55.1862C50.0835 55.2841 50.1702 55.5342 50.0618 55.73C49.9968 55.8931 49.8559 55.9692 49.7041 55.9692Z" fill="#7D662D"/>
<path d="M48.0785 40.9613C47.9051 40.9613 47.7533 40.8525 47.6991 40.6894C46.832 38.0793 48.8589 36.0674 49.5092 35.7411C49.7043 35.6323 49.9536 35.7194 50.0511 35.9151C50.1487 36.1109 50.0728 36.361 49.8777 36.4589C49.585 36.6111 47.7208 38.2098 48.4578 40.4284C48.5337 40.6459 48.4145 40.8743 48.1977 40.9395C48.1652 40.9613 48.1218 40.9613 48.0785 40.9613Z" fill="#7D662D"/>
<path d="M58.1908 42.5818H50.9181C50.6905 42.5818 50.5171 42.3969 50.5171 42.1794C50.5171 41.9619 50.7013 41.777 50.9181 41.777H58.1908C58.4184 41.777 58.5919 41.9619 58.5919 42.1794C58.5919 42.3969 58.4076 42.5818 58.1908 42.5818Z" fill="#7D662D"/>
<path d="M58.1908 49.879H50.9181C50.6905 49.879 50.5171 49.6941 50.5171 49.4766C50.5171 49.2482 50.7013 49.0742 50.9181 49.0742H58.1908C58.4184 49.0742 58.5919 49.2591 58.5919 49.4766C58.5919 49.705 58.4184 49.879 58.1908 49.879Z" fill="#7D662D"/>
<defs>
<linearGradient id="paint0_linear_475_160" x1="24.015" y1="130.602" x2="62.6502" y2="31.4555" gradientUnits="userSpaceOnUse">
<stop stop-color="#885DF5"/>
<stop offset="0.9944" stop-color="#6B7CFE"/>
</linearGradient>
<linearGradient id="paint1_linear_475_160" x1="75.8556" y1="220.129" x2="144.334" y2="44.3982" gradientUnits="userSpaceOnUse">
<stop stop-color="#885DF5"/>
<stop offset="0.9944" stop-color="#6B7CFE"/>
</linearGradient>
<linearGradient id="paint2_linear_475_160" x1="277.14" y1="41.1438" x2="279.013" y2="36.3374" gradientUnits="userSpaceOnUse">
<stop stop-color="#6C63FF"/>
<stop offset="0.9944" stop-color="#6B7CFE"/>
</linearGradient>
<linearGradient id="paint3_linear_475_160" x1="279.235" y1="51.457" x2="284.508" y2="37.9251" gradientUnits="userSpaceOnUse">
<stop stop-color="#885DF5"/>
<stop offset="0.9944" stop-color="#6B7CFE"/>
</linearGradient>
<linearGradient id="paint4_linear_475_160" x1="303.108" y1="52.9749" x2="308.292" y2="39.671" gradientUnits="userSpaceOnUse">
<stop stop-color="#885DF5"/>
<stop offset="0.9944" stop-color="#6B7CFE"/>
</linearGradient>
<linearGradient id="paint5_linear_475_160" x1="318.988" y1="54.9049" x2="324.337" y2="41.1787" gradientUnits="userSpaceOnUse">
<stop stop-color="#885DF5"/>
<stop offset="0.9944" stop-color="#6B7CFE"/>
</linearGradient>
<linearGradient id="paint6_linear_475_160" x1="147.331" y1="291.164" x2="232.562" y2="72.4438" gradientUnits="userSpaceOnUse">
<stop stop-color="#885DF5"/>
<stop offset="0.9944" stop-color="#6B7CFE"/>
</linearGradient>
<linearGradient id="paint7_linear_475_160" x1="0.0246164" y1="55.8979" x2="106.87" y2="55.8214" gradientUnits="userSpaceOnUse">
<stop stop-color="#4D338A"/>
<stop offset="0.9888" stop-color="#252857"/>
</linearGradient>
<linearGradient id="paint8_linear_475_160" x1="0.0488189" y1="89.7482" x2="252.066" y2="89.5676" gradientUnits="userSpaceOnUse">
<stop stop-color="#6947BD"/>
<stop offset="0.9888" stop-color="#252857"/>
</linearGradient>
<linearGradient id="paint9_linear_475_160" x1="0.0649303" y1="112.3" x2="301.147" y2="112.085" gradientUnits="userSpaceOnUse">
<stop stop-color="#885DF5"/>
<stop offset="0.9888" stop-color="#2E3670"/>
</linearGradient>
<linearGradient id="paint10_linear_475_160" x1="277.14" y1="41.1438" x2="279.013" y2="36.3374" gradientUnits="userSpaceOnUse">
<stop stop-color="#6C63FF"/>
<stop offset="0.9944" stop-color="#6B7CFE"/>
</linearGradient>
<linearGradient id="paint11_linear_475_160" x1="279.235" y1="51.457" x2="284.508" y2="37.9251" gradientUnits="userSpaceOnUse">
<stop stop-color="#885DF5"/>
<stop offset="0.9944" stop-color="#6B7CFE"/>
</linearGradient>
<linearGradient id="paint12_linear_475_160" x1="77.2192" y1="112.245" x2="353.572" y2="112.047" gradientUnits="userSpaceOnUse">
<stop stop-color="#885DF5"/>
<stop offset="0.9944" stop-color="#4551A6"/>
</linearGradient>
<linearGradient id="paint13_linear_475_160" x1="303.108" y1="52.9749" x2="308.292" y2="39.671" gradientUnits="userSpaceOnUse">
<stop stop-color="#885DF5"/>
<stop offset="0.9944" stop-color="#6B7CFE"/>
</linearGradient>
<linearGradient id="paint14_linear_475_160" x1="318.988" y1="54.9049" x2="324.337" y2="41.1787" gradientUnits="userSpaceOnUse">
<stop stop-color="#885DF5"/>
<stop offset="0.9944" stop-color="#6B7CFE"/>
</linearGradient>
<linearGradient id="paint15_linear_475_160" x1="149.775" y1="143.617" x2="353.595" y2="143.471" gradientUnits="userSpaceOnUse">
<stop stop-color="#885DF5"/>
<stop offset="0.9944" stop-color="#5C6BDB"/>
</linearGradient>
<linearGradient id="paint16_linear_475_160" x1="147.331" y1="291.164" x2="232.562" y2="72.4438" gradientUnits="userSpaceOnUse">
<stop stop-color="#885DF5"/>
<stop offset="0.9944" stop-color="#6B7CFE"/>
</linearGradient>
<linearGradient id="paint17_linear_475_160" x1="190.045" y1="179.496" x2="353.62" y2="179.379" gradientUnits="userSpaceOnUse">
<stop stop-color="#885DF5"/>
<stop offset="0.9944" stop-color="#6B7CFE"/>
</linearGradient>
</defs>
</svg>
